<?xml version="1.0" standalone="no"?>
<!DOCTYPE svg PUBLIC "-//W3C//DTD SVG 20010904//EN"
 "http://www.w3.org/TR/2001/REC-SVG-20010904/DTD/svg10.dtd">
<svg version="1.0" xmlns="http://www.w3.org/2000/svg"
 width="1000.000000pt" height="1000.000000pt" viewBox="0 0 1000.000000 1000.000000"
 preserveAspectRatio="xMidYMid meet">
<metadata>
Created by potrace 1.14, written by Peter Selinger 2001-2017
</metadata>
<g transform="translate(0.000000,1000.000000) scale(0.100000,-0.100000)"
fill="#000000" stroke="none">
<path d="M4970 8959 c-41 -4 -82 -6 -91 -3 -8 2 -29 -3 -46 -11 -17 -8 -57
-17 -89 -20 -44 -3 -63 -9 -76 -25 l-17 -20 -14 20 c-14 21 -44 19 -59 -4 -8
-12 -12 -13 -53 -15 -14 0 -37 -13 -51 -28 -14 -15 -35 -28 -47 -30 -12 -2
-25 -10 -30 -18 -4 -8 -14 -15 -21 -15 -7 0 -31 -9 -54 -20 -22 -11 -46 -20
-52 -20 -27 0 -140 -97 -140 -119 0 -6 -13 -20 -30 -32 -16 -12 -27 -26 -24
-31 3 -4 -2 -8 -10 -8 -9 0 -16 5 -16 10 0 15 -19 12 -64 -9 -23 -10 -49 -21
-60 -25 -12 -4 -17 -13 -13 -27 4 -15 -1 -23 -21 -32 -15 -7 -35 -19 -45 -27
-10 -8 -21 -16 -25 -16 -26 -5 -52 -18 -52 -25 0 -5 -5 -9 -10 -9 -20 0 -70
-44 -70 -60 0 -9 -16 -35 -35 -57 -19 -23 -35 -45 -35 -51 0 -5 -10 -20 -22
-34 -62 -68 -76 -87 -70 -93 4 -3 2 -9 -4 -13 -26 -17 -112 -144 -107 -158 4
-10 -2 -17 -17 -21 -16 -4 -18 -8 -9 -14 11 -6 10 -12 -3 -26 -63 -68 -88 -93
-94 -93 -4 0 -17 -11 -30 -25 -13 -14 -18 -25 -12 -25 7 0 -2 -12 -19 -27 -36
-34 -68 -81 -59 -90 3 -3 1 -12 -5 -20 -9 -10 -7 -13 7 -13 16 0 16 -1 1 -12
-21 -17 -34 -68 -17 -68 9 0 8 -6 -3 -18 -23 -25 -24 -50 -2 -32 12 10 19 10
27 2 9 -9 9 -12 0 -12 -7 0 -12 -4 -12 -10 0 -5 9 -10 20 -10 26 0 25 -14 -2
-33 -19 -13 -20 -16 -5 -16 9 -1 17 3 17 7 0 11 60 45 67 38 4 -3 1 -6 -5 -6
-7 0 -12 -4 -12 -10 0 -5 8 -7 18 -4 16 5 16 5 0 -8 -23 -20 -29 -76 -6 -62 8
5 9 2 4 -12 -5 -10 -11 -28 -14 -39 -2 -11 -9 -26 -15 -32 -5 -7 -7 -20 -3
-28 3 -8 0 -15 -6 -15 -6 0 -9 -3 -6 -6 4 -3 2 -20 -3 -37 -5 -17 -5 -33 -1
-36 13 -11 -4 -372 -21 -424 -15 -48 -33 -168 -29 -197 5 -34 26 -90 34 -90 4
0 8 -4 8 -9 0 -4 -12 -6 -26 -3 -26 5 -26 4 10 -32 37 -39 45 -61 24 -69 -18
-6 -77 3 -84 14 -3 5 -10 9 -16 9 -7 0 1 -13 17 -30 16 -16 34 -30 42 -30 12
0 33 -30 33 -49 0 -6 -13 -9 -29 -8 -16 1 -28 4 -26 6 2 2 -2 9 -8 16 -8 9
-16 10 -24 3 -7 -6 -20 -8 -28 -4 -8 3 -15 1 -15 -5 0 -5 -6 -9 -12 -8 -31 4
-38 -3 -38 -33 0 -17 7 -39 16 -49 15 -16 15 -27 1 -120 -10 -74 -12 -110 -4
-126 14 -31 23 -22 37 37 7 28 17 53 22 57 7 4 9 -4 4 -23 -7 -27 -6 -28 9
-13 10 9 20 46 26 90 10 72 29 119 49 119 6 0 10 -5 10 -11 0 -5 4 -7 10 -4 6
3 7 -1 4 -10 -4 -10 -2 -14 8 -10 11 4 14 -1 13 -22 -1 -15 0 -20 2 -10 8 30
20 19 38 -35 9 -29 20 -55 24 -58 4 -3 11 -16 17 -30 9 -21 7 -27 -18 -49 -28
-23 -29 -27 -22 -75 3 -28 13 -56 22 -62 10 -7 12 -16 7 -25 -8 -12 -6 -12 8
0 9 7 17 20 17 28 0 7 8 25 17 40 l17 25 13 -37 c7 -20 10 -42 6 -48 -4 -6 0
-8 10 -4 14 5 17 0 17 -23 0 -21 5 -30 16 -30 12 0 14 -4 7 -12 -5 -7 -8 -31
-6 -53 9 -114 1 -241 -17 -275 -13 -24 -13 -53 0 -45 13 8 7 -40 -8 -78 -7
-16 -12 -50 -11 -75 1 -82 0 -103 -8 -115 -4 -7 -6 -24 -4 -39 1 -18 -2 -28
-11 -28 -10 0 -10 -2 -1 -8 10 -6 9 -14 -1 -34 -11 -20 -11 -28 -3 -31 7 -2
-1 -11 -18 -18 -61 -28 -60 -51 3 -48 31 2 47 -1 48 -9 1 -7 3 -15 4 -19 6
-18 7 -30 8 -70 1 -23 8 -48 16 -55 9 -9 11 -20 5 -35 -5 -14 -4 -25 2 -29 5
-3 9 -13 8 -22 -3 -30 1 -43 10 -37 5 3 12 1 16 -5 3 -5 3 -10 -2 -10 -6 0 -8
-43 -4 -92 1 -5 7 -7 14 -5 7 1 12 -9 12 -25 -1 -16 2 -28 5 -28 3 0 5 -17 5
-37 -1 -21 1 -42 3 -47 3 -5 6 -29 7 -55 2 -25 8 -58 14 -73 8 -21 8 -28 -2
-28 -7 0 -4 -7 7 -15 13 -10 17 -21 12 -38 -4 -16 0 -29 10 -37 8 -7 13 -19
10 -27 -7 -17 4 -44 15 -37 5 3 6 -2 3 -10 -3 -9 6 -36 20 -60 14 -25 26 -52
26 -60 0 -9 4 -16 9 -16 5 0 12 -13 16 -30 4 -17 11 -30 16 -30 6 0 7 -5 4
-10 -3 -6 7 -30 24 -54 16 -25 23 -42 15 -39 -8 3 -14 -1 -14 -11 0 -10 6 -13
16 -9 17 6 38 -15 94 -93 l29 -41 -25 5 c-17 3 -24 0 -24 -11 0 -23 46 -48 85
-45 29 2 40 -4 64 -32 21 -26 26 -38 19 -48 -8 -9 -6 -18 6 -31 13 -15 14 -20
4 -24 -10 -5 -10 -8 2 -19 8 -7 23 -25 32 -39 11 -18 24 -26 40 -24 13 1 29 3
37 4 9 1 4 8 -12 21 -29 23 -42 26 -31 8 5 -9 2 -9 -9 1 -22 17 -22 32 0 24
12 -5 14 -3 8 8 -10 16 29 -14 66 -53 l26 -26 -25 1 c-14 1 -26 -2 -28 -8 -4
-10 61 -57 83 -61 16 -3 66 -39 84 -60 13 -16 12 -16 -8 -5 -25 13 -30 3 -10
-18 10 -11 8 -11 -13 -1 l-25 13 23 -25 c27 -30 29 -48 2 -23 -15 14 -23 16
-32 7 -15 -15 24 -30 69 -27 23 2 30 -1 26 -11 -6 -16 5 -18 26 -5 7 5 11 13
8 18 -3 5 3 9 13 10 11 1 22 -2 25 -8 4 -5 -2 -6 -11 -2 -14 5 -16 3 -11 -11
4 -9 3 -15 -2 -11 -9 5 -27 -13 -20 -19 11 -10 51 -17 46 -8 -9 13 43 6 56 -7
13 -13 30 -15 23 -2 -4 5 3 7 14 4 28 -8 35 -22 8 -16 -22 4 -23 4 -4 -11 11
-9 25 -16 32 -16 6 0 15 -7 18 -16 4 -9 9 -14 13 -11 3 4 12 2 20 -4 9 -8 10
-15 3 -24 -8 -9 -8 -15 0 -20 5 -3 10 -1 10 4 0 17 40 12 85 -10 29 -14 33
-18 15 -15 -14 2 -33 7 -42 11 -10 4 -18 3 -18 -3 0 -5 20 -15 45 -22 25 -7
45 -17 45 -22 0 -5 8 -8 18 -7 21 3 53 -11 48 -20 -2 -3 6 -6 17 -6 12 -1 33
-5 47 -9 22 -8 23 -7 12 7 -11 13 -10 15 8 10 13 -3 25 0 30 7 6 9 12 10 26 1
17 -9 17 -10 2 -11 -10 0 -18 -7 -18 -15 0 -10 10 -15 28 -15 21 0 24 2 12 10
-13 8 -12 10 3 10 9 0 26 5 36 12 15 9 28 9 54 1 31 -9 35 -9 30 5 -5 12 -2
14 13 8 34 -14 119 -22 147 -15 19 5 27 4 27 -6 0 -8 -8 -16 -17 -18 -16 -4
-16 -5 -1 -6 9 0 19 3 23 8 3 5 21 7 40 4 22 -3 35 -2 35 5 0 6 20 14 45 18
25 3 45 10 45 15 0 5 10 -1 21 -12 15 -15 24 -18 28 -10 10 15 71 10 71 -5 0
-6 -11 -19 -25 -28 -14 -9 -23 -21 -20 -26 3 -5 -4 -14 -15 -20 -11 -6 -20
-17 -20 -25 0 -7 -10 -17 -22 -21 -13 -4 -33 -14 -46 -22 -19 -12 -20 -17 -10
-30 12 -14 11 -14 -9 -1 -19 11 -27 11 -43 2 -10 -7 -27 -10 -36 -6 -12 4 -15
2 -12 -8 7 -18 105 -14 163 7 22 9 56 18 75 20 19 3 53 17 75 33 22 15 55 33
73 40 17 8 32 20 32 27 0 8 9 14 19 14 21 0 84 49 65 50 -6 0 -19 -9 -29 -20
-10 -11 -23 -20 -28 -20 -14 0 22 38 43 45 9 3 22 16 28 30 8 17 16 23 28 18
13 -5 16 -2 11 9 -6 17 45 73 56 61 4 -3 13 0 20 9 6 8 20 18 29 21 14 5 15 2
6 -24 -12 -34 -23 -39 -15 -7 6 20 4 20 -21 -5 -22 -22 -24 -29 -13 -36 11 -7
6 -13 -20 -27 -19 -10 -42 -17 -51 -15 -10 1 -18 -1 -18 -5 0 -4 8 -13 18 -20
15 -12 15 -13 1 -14 -9 0 -23 -7 -30 -16 -12 -15 -11 -16 11 -9 35 11 45 18
45 34 0 22 64 53 98 48 28 -4 29 -3 11 10 -10 7 -24 11 -31 9 -7 -3 -13 -1
-13 4 0 5 9 12 20 15 11 3 20 14 20 24 0 24 31 51 58 51 12 0 22 5 22 11 0 6
-9 9 -20 6 -13 -3 -20 0 -20 10 0 8 5 11 11 7 6 -3 15 0 20 7 7 11 10 9 15 -8
6 -23 34 -33 34 -13 0 6 -4 10 -9 10 -5 0 -4 11 2 24 8 16 14 20 19 13 4 -6 2
-17 -4 -24 -8 -10 -7 -13 3 -13 8 -1 2 -11 -14 -24 -19 -15 -26 -28 -21 -39 7
-20 -13 -74 -32 -85 -8 -4 -15 -20 -16 -34 -1 -15 -7 -26 -13 -25 -5 1 -9 -9
-7 -22 2 -15 0 -21 -7 -17 -6 4 -11 0 -11 -9 0 -9 -15 -49 -34 -88 -19 -40
-36 -81 -38 -92 -2 -11 -13 -24 -26 -30 -12 -5 -20 -16 -17 -22 2 -7 0 -13 -5
-13 -6 0 -10 -9 -10 -21 0 -11 -5 -17 -10 -14 -6 4 -15 -7 -21 -24 -6 -17 -20
-36 -30 -42 -11 -5 -17 -15 -13 -20 3 -6 -5 -20 -19 -32 -32 -29 -63 -92 -42
-83 25 9 17 -8 -22 -48 l-38 -39 28 5 c15 3 27 1 27 -3 0 -5 -6 -9 -14 -9 -20
0 -32 -20 -40 -63 -5 -28 -4 -37 4 -32 7 4 5 -6 -4 -23 -21 -41 -34 -48 -52
-26 -14 18 -15 17 -11 -8 3 -19 -1 -28 -12 -31 -14 -4 -14 -5 0 -6 21 -1 27
-25 24 -91 -3 -51 -20 -100 -36 -100 -9 0 2 35 23 73 10 20 10 21 -5 8 -20
-16 -22 -4 -4 24 16 25 16 57 -1 63 -7 2 -12 -6 -12 -20 0 -13 -7 -33 -16 -44
-8 -10 -13 -14 -10 -9 2 6 1 17 -5 25 -7 12 -9 11 -9 -5 -1 -11 -9 1 -21 28
-10 27 -17 53 -14 58 4 5 3 9 0 9 -3 0 -13 -16 -21 -35 -8 -20 -19 -33 -24
-30 -6 4 -7 -11 -4 -39 5 -31 3 -46 -4 -46 -7 0 -10 12 -8 28 2 15 1 21 -1 15
-2 -7 -9 -13 -14 -13 -6 0 -7 5 -3 12 4 6 3 8 -4 4 -6 -3 -13 2 -15 11 -2 10
-3 -2 0 -27 3 -33 1 -41 -6 -30 -9 12 -11 11 -11 -9 0 -21 -2 -22 -17 -10 -15
13 -15 12 -3 -11 8 -14 13 -29 12 -33 -1 -5 2 -6 7 -2 17 10 24 -42 13 -87 -7
-26 -7 -48 -1 -59 14 -27 10 -36 -6 -15 -13 17 -15 17 -15 4 0 -9 5 -20 11
-24 6 -3 9 -15 6 -25 -3 -11 -1 -17 3 -14 5 3 14 -3 19 -14 14 -25 14 -31 1
-31 -5 0 -10 8 -10 18 0 14 -2 14 -9 3 -7 -11 -11 -5 -16 23 -7 34 -8 35 -22
19 -8 -10 -12 -13 -9 -7 9 19 -13 81 -29 81 -8 0 -15 -5 -15 -10 0 -5 -7 -4
-15 3 -9 7 -15 8 -15 2 0 -16 -31 -7 -42 12 -5 9 -7 24 -4 31 3 8 1 17 -4 20
-10 6 -14 -14 -12 -50 2 -16 0 -17 -8 -5 -15 24 -13 103 3 97 8 -3 14 1 14 9
0 16 -28 15 -39 -1 -4 -5 -8 -22 -8 -36 0 -39 -27 -44 -45 -9 -9 16 -16 33
-16 37 -2 19 -9 14 -9 -5 0 -12 -4 -22 -10 -22 -5 0 -10 7 -10 15 0 8 -5 15
-11 15 -5 0 -7 -5 -3 -12 8 -12 7 -12 -73 39 -29 19 -53 40 -53 48 0 8 -4 15
-10 15 -5 0 -7 -7 -4 -15 5 -11 2 -13 -10 -9 -10 4 -15 13 -12 20 3 7 -5 21
-17 30 -19 14 -19 15 -3 10 19 -7 19 -6 3 12 -22 24 -22 43 1 35 16 -6 16 -5
-1 14 -9 11 -15 23 -12 26 3 4 0 3 -6 -2 -6 -5 -19 -7 -28 -4 -14 4 -13 2 2
-10 9 -8 17 -25 17 -37 0 -23 0 -23 -22 -4 -21 19 -21 19 -15 -1 6 -16 3 -15
-13 5 -11 14 -20 30 -20 35 0 6 4 3 10 -5 5 -8 12 -11 16 -8 3 4 -4 21 -16 38
-12 17 -23 37 -24 45 -1 8 -14 27 -27 42 -14 16 -35 42 -47 59 -11 16 -39 49
-61 72 -23 23 -41 49 -41 57 0 17 -34 37 -45 27 -5 -4 -5 -2 -2 4 4 6 -5 22
-18 34 -14 13 -25 29 -25 37 0 7 -5 13 -10 13 -11 0 -32 44 -34 68 -1 7 -12
18 -26 25 -14 7 -26 21 -28 32 -2 11 -10 25 -17 31 -8 6 -19 23 -24 37 -6 15
-14 26 -18 25 -12 -4 -54 28 -46 35 3 4 1 7 -5 7 -6 0 -18 12 -26 28 -8 15
-15 24 -16 20 0 -4 -19 13 -42 39 -24 25 -42 50 -41 54 2 4 -6 10 -16 14 -10
3 -21 15 -25 27 -3 12 -8 19 -12 15 -4 -4 -18 8 -31 26 -13 17 -27 32 -31 32
-12 -1 -42 29 -42 42 0 6 -9 15 -20 18 -11 3 -20 11 -20 17 0 6 -7 18 -15 27
-48 49 -95 108 -95 118 0 7 -8 17 -18 22 -11 6 -34 31 -53 56 -19 25 -44 58
-56 73 -13 15 -23 32 -23 38 0 6 -9 19 -20 29 -16 14 -17 20 -8 27 9 5 8 8 -5
8 -10 0 -15 5 -12 11 4 6 -1 17 -11 24 -16 12 -16 16 -5 24 11 7 9 13 -8 30
-11 11 -21 32 -21 46 0 14 -5 25 -11 25 -6 0 -8 9 -4 20 4 11 2 20 -4 20 -6 0
-11 5 -11 11 0 5 6 7 13 3 9 -6 9 -5 0 8 -7 8 -9 19 -5 23 4 5 2 5 -5 1 -8 -5
-12 2 -11 21 0 15 -3 39 -7 52 -6 18 -5 22 4 17 8 -5 7 4 -3 29 -9 20 -15 46
-15 58 0 12 -3 115 -7 230 -5 144 -11 207 -19 207 -19 0 -131 -87 -159 -122
-33 -44 -63 -112 -76 -174 -6 -27 -22 -69 -35 -94 -82 -150 -147 -292 -154
-335 -5 -27 -17 -72 -26 -100 -10 -27 -19 -55 -21 -62 -2 -7 -20 -17 -42 -22
-21 -6 -133 -68 -248 -137 -270 -162 -276 -166 -408 -225 -71 -32 -135 -53
-178 -59 -91 -13 -155 -39 -288 -116 -63 -37 -162 -91 -220 -121 -58 -30 -107
-57 -109 -59 -2 -2 25 -43 59 -91 218 -305 511 -612 805 -844 670 -527 1456
-829 2315 -889 1030 -72 2060 255 2890 916 216 173 644 613 625 643 -7 13
-480 247 -539 267 -23 8 -147 42 -276 75 -306 79 -412 114 -595 199 -22 11
-76 34 -120 52 l-80 34 -1 129 c-1 107 -5 142 -24 195 -45 132 -103 220 -219
336 -45 45 -81 88 -81 97 0 9 7 23 16 32 9 9 14 19 10 22 -3 3 3 12 14 20 11
8 20 20 20 27 0 7 11 26 24 41 14 16 23 32 20 37 -3 4 0 8 6 8 7 0 10 6 7 14
-3 8 1 17 9 20 8 3 14 12 14 20 0 7 7 17 16 20 8 3 12 11 9 16 -4 6 2 19 13
28 10 9 17 22 15 29 -2 6 5 17 15 25 13 9 19 23 17 40 -2 20 2 29 17 34 13 4
17 11 13 22 -11 29 -10 37 3 34 9 -2 12 5 8 20 -3 13 -3 17 0 11 9 -20 24 -15
24 8 0 11 5 29 10 39 11 21 -4 75 -19 66 -5 -3 -11 1 -15 9 -12 31 15 24 35
-10 25 -42 32 -41 19 3 -5 20 -5 30 1 27 5 -4 9 -13 9 -21 0 -32 17 -11 18 23
1 20 6 39 11 42 13 9 17 77 5 92 -13 16 -44 95 -44 110 0 20 20 -3 21 -24 1
-14 3 -16 6 -6 2 8 -5 36 -16 62 -15 34 -24 45 -35 41 -9 -4 -18 1 -22 10 -3
9 -11 16 -16 16 -7 0 -7 -4 -1 -12 5 -7 8 -29 7 -48 -4 -47 5 -78 17 -59 7 11
9 11 9 1 0 -7 7 -20 15 -28 8 -9 15 -21 15 -27 0 -7 -7 -4 -14 6 -16 20 -30
23 -23 3 3 -8 -1 -22 -9 -33 -9 -10 -13 -12 -9 -5 3 6 -1 19 -9 28 -15 14 -16
14 -16 0 0 -26 -19 -19 -67 24 -57 50 -73 52 -28 3 18 -20 36 -46 39 -57 4
-16 -2 -13 -23 12 -15 17 -31 32 -35 32 -5 0 -3 -6 3 -14 15 -18 -11 -30 -28
-13 -8 8 -11 5 -11 -11 0 -22 33 -47 50 -37 5 3 11 1 14 -4 4 -5 2 -12 -3 -16
-6 -3 -7 -13 -4 -22 4 -11 3 -14 -5 -9 -7 4 -12 13 -12 21 0 7 -6 15 -14 18
-10 4 -12 -1 -9 -16 4 -22 4 -22 -11 -3 -9 11 -16 23 -16 28 0 4 -5 8 -10 8
-13 0 -9 -59 4 -67 5 -3 6 -1 2 5 -4 7 -4 12 -1 12 3 0 11 -13 16 -30 6 -16
15 -27 21 -24 5 3 12 -3 15 -15 3 -11 18 -26 34 -33 37 -17 55 -51 42 -80
l-10 -23 -13 25 c-12 22 -11 23 1 13 12 -10 15 -8 15 7 0 10 -4 16 -8 14 -4
-3 -8 3 -9 13 0 11 -3 13 -6 5 -2 -6 -8 -10 -13 -7 -4 3 -4 -12 1 -33 5 -20 8
-41 8 -47 0 -16 -21 25 -24 48 -6 36 -29 97 -37 97 -4 0 -21 15 -38 33 l-32
32 18 -35 c9 -19 20 -37 24 -40 4 -3 10 -16 14 -30 l7 -25 -23 27 c-22 26 -24
27 -25 7 -2 -26 -14 -39 -20 -21 -3 6 -9 12 -15 12 -6 0 -3 -10 8 -22 10 -12
13 -18 7 -14 -9 5 -13 1 -14 -11 0 -14 -2 -14 -9 5 -15 36 -23 26 -17 -20 l6
-43 -21 25 -21 25 6 -26 c5 -19 3 -26 -8 -26 -8 0 -15 6 -15 14 0 7 -4 13 -10
13 -5 0 -10 8 -11 18 0 11 -2 13 -6 4 -3 -9 -12 -3 -25 18 -13 22 -16 36 -9
44 10 11 8 33 -5 90 l-7 29 24 -24 23 -23 8 32 c5 18 13 30 18 27 6 -4 10 -1
10 5 0 6 5 8 10 5 14 -9 12 5 -5 35 -19 34 -19 61 0 54 20 -8 19 5 -2 28 -9
10 -12 18 -7 18 5 0 15 -10 23 -21 10 -17 15 -19 21 -9 5 9 1 25 -12 43 -22
31 -16 52 7 21 22 -30 18 -6 -5 27 -35 48 -77 86 -94 83 -9 -1 -31 10 -48 24
-21 18 -33 23 -36 14 -5 -15 -42 -16 -42 -1 0 5 -4 8 -9 5 -5 -3 -28 11 -52
32 -78 67 -101 82 -128 81 -22 0 -20 -3 19 -21 25 -11 40 -22 33 -25 -6 -2
-28 5 -49 16 -61 33 -75 24 -16 -9 56 -33 73 -51 20 -23 -18 9 -37 16 -42 15
-4 -2 -15 3 -24 10 -12 10 -16 10 -19 1 -7 -19 -28 -16 -49 8 -19 21 -19 22 3
15 12 -4 24 -3 27 2 3 5 -8 12 -24 16 -33 6 -38 20 -15 42 12 12 15 12 15 2 0
-10 3 -9 10 2 5 8 9 29 8 46 -1 17 2 36 6 43 5 7 -4 6 -26 -3 -54 -23 -72 -29
-86 -27 -8 1 -20 -3 -28 -10 -8 -6 -14 -9 -14 -5 0 3 -9 -2 -20 -11 -11 -10
-20 -22 -20 -28 0 -10 -85 -41 -93 -34 -2 2 -11 -2 -20 -10 -13 -10 -33 -12
-84 -6 -61 6 -72 11 -117 51 -27 25 -54 43 -60 41 -6 -2 -22 0 -36 6 -52 20
-182 25 -188 7 -2 -6 -9 -7 -15 -3 -6 4 -8 0 -4 -11 5 -13 2 -15 -18 -12 -21
4 -24 2 -16 -13 6 -10 17 -23 25 -30 9 -8 13 -17 11 -21 -3 -5 8 -17 25 -26
16 -10 30 -21 30 -25 0 -4 9 -9 20 -12 11 -3 20 -10 20 -16 0 -16 -16 -13 -35
6 -10 10 -19 12 -23 6 -4 -5 -26 -8 -50 -5 -38 4 -41 6 -30 21 7 9 -8 -3 -34
-26 -26 -24 -52 -43 -58 -43 -6 0 -8 -4 -5 -10 3 -5 -3 -10 -15 -10 -11 0 -23
-6 -26 -14 -3 -8 -13 -17 -22 -21 -14 -5 -14 -4 1 13 21 23 22 32 2 32 -8 0
-15 5 -15 11 0 6 -9 8 -20 4 -12 -4 -27 -2 -34 4 -9 8 -18 5 -34 -9 -29 -28
-36 -25 -15 6 17 27 17 27 -5 15 -12 -6 -22 -9 -22 -6 0 2 -9 -3 -20 -12 -13
-12 -18 -25 -14 -42 4 -26 4 -26 -6 -3 -5 13 -8 28 -4 33 3 5 0 9 -6 9 -6 0
-13 -8 -17 -17 -3 -10 -13 -26 -21 -35 -8 -10 -12 -23 -9 -31 3 -7 -3 -13 -14
-14 -11 -1 -16 3 -13 12 7 16 -18 14 -38 -3 -12 -9 -17 -7 -28 13 -14 26 -30
29 -38 7 -2 -7 2 -10 11 -6 8 3 17 2 20 -3 3 -4 -6 -9 -19 -9 -16 -1 -24 4
-24 15 -1 14 -2 14 -11 -1 -5 -9 -15 -15 -22 -12 -7 2 -18 -5 -25 -17 -8 -12
-9 -18 -3 -14 6 3 11 2 11 -3 0 -5 -8 -12 -18 -14 -10 -3 -19 -11 -20 -19 0
-8 -4 -25 -8 -39 -7 -25 -7 -25 14 -6 12 11 22 25 22 33 0 8 4 12 9 9 5 -3 11
2 14 13 2 10 14 21 27 24 l22 6 -21 -23 c-11 -12 -21 -29 -21 -38 0 -9 -7 -19
-16 -22 -9 -4 -14 -9 -11 -12 3 -3 1 -19 -3 -36 -8 -25 -7 -28 5 -18 8 7 15
17 15 23 0 26 35 86 56 96 21 9 23 8 20 -12 -2 -13 -10 -22 -21 -22 -10 0 -20
-6 -22 -12 -6 -17 14 -17 20 0 3 6 3 -4 0 -23 -8 -45 -39 -97 -46 -78 -4 10
-8 10 -16 -2 -8 -11 -7 -16 4 -18 8 -2 15 -9 15 -15 0 -7 7 -3 15 7 16 21 21
10 6 -13 -5 -8 -16 -11 -24 -8 -8 3 -20 0 -26 -6 -9 -9 -14 -9 -20 1 -5 8 -11
0 -19 -25 -9 -32 -9 -35 2 -21 15 20 27 14 20 -10 -2 -10 4 0 15 22 l19 39 8
-34 c5 -19 9 -39 9 -46 1 -21 14 -26 21 -9 4 10 2 22 -5 29 -16 16 -14 36 10
65 l21 27 -7 -32 c-7 -36 9 -45 34 -20 11 10 11 8 2 -10 -19 -37 -11 -40 9 -3
11 19 19 31 20 26 0 -5 7 -3 16 5 13 11 14 9 9 -17 -4 -18 -3 -24 2 -17 7 9
14 7 28 -9 12 -15 20 -18 23 -10 4 12 42 17 42 5 0 -3 -7 -14 -15 -23 -13 -15
-13 -19 0 -36 15 -18 16 -18 13 5 -3 23 7 33 46 45 11 4 16 12 12 21 -3 9 1
15 11 15 12 0 13 3 4 13 -8 11 -5 13 19 9 17 -2 33 -8 36 -13 3 -5 21 -9 39
-9 38 0 76 -26 68 -45 -2 -7 0 -16 6 -20 6 -3 11 1 11 9 0 9 5 16 10 16 6 0
10 -6 10 -12 0 -12 14 -16 73 -21 9 -1 17 -5 17 -10 0 -5 7 -7 15 -3 10 3 15
-1 15 -12 0 -15 2 -15 10 -2 8 12 10 11 10 -7 0 -13 5 -23 10 -23 6 0 10 4 10
10 0 5 7 7 15 4 11 -5 15 1 15 24 0 17 6 33 13 35 6 3 2 6 -10 6 -12 1 -25 6
-28 11 -8 14 -1 13 42 -5 20 -8 38 -13 41 -10 3 3 11 0 18 -5 8 -8 16 -6 27 5
20 19 56 19 63 0 5 -12 9 -13 20 -4 9 7 32 10 59 7 25 -3 45 -2 45 3 0 8 35 6
82 -6 19 -5 29 -2 37 12 10 17 10 17 11 -1 0 -15 6 -17 34 -14 21 2 34 0 33
-7 -1 -5 3 -9 9 -8 61 11 64 11 64 -4 0 -13 -3 -13 -17 -3 -10 7 -5 1 10 -14
29 -27 47 -27 47 0 0 10 12 14 38 14 26 0 33 3 23 9 -12 8 -8 11 15 17 57 15
90 0 79 -37 -4 -12 2 -16 27 -17 l33 -1 -25 14 -25 13 30 5 30 4 -27 2 c-16 0
-28 6 -28 11 0 7 13 8 36 4 25 -4 35 -3 31 4 -4 5 0 13 9 16 10 4 13 2 8 -7
-5 -8 -2 -7 9 2 9 7 26 11 38 8 16 -4 19 -2 15 11 -4 12 -2 11 7 -2 7 -11 23
-31 37 -44 14 -14 21 -23 15 -20 -5 3 -15 0 -22 -7 -10 -10 -9 -15 5 -20 14
-5 14 -7 2 -15 -12 -8 -12 -10 -1 -10 7 0 11 -6 7 -15 -3 -9 0 -15 9 -15 8 0
15 -4 15 -10 0 -5 -5 -10 -11 -10 -8 0 -7 -6 2 -16 12 -15 11 -16 -11 -9 -23
7 -24 6 -11 -9 13 -16 12 -17 -15 -11 -16 4 -35 8 -41 11 -8 2 -13 -6 -13 -19
0 -17 2 -19 9 -8 5 8 16 11 26 8 9 -4 13 -11 10 -17 -4 -6 -11 -8 -16 -5 -5 4
-9 1 -9 -4 0 -6 7 -11 15 -11 8 0 15 -5 15 -11 0 -5 -5 -7 -12 -3 -6 4 -23 9
-37 10 -14 1 -37 5 -51 9 -24 6 -24 6 -6 -9 11 -9 16 -16 11 -16 -4 0 0 -9 11
-21 16 -17 16 -22 4 -29 -8 -5 -23 -7 -34 -4 -13 5 -16 3 -11 -7 6 -9 4 -11
-7 -6 -19 7 -31 -26 -15 -42 6 -6 7 -11 1 -11 -5 0 -15 -4 -23 -9 -12 -8 -13
-12 -1 -26 12 -14 10 -15 -14 -5 -15 5 -28 10 -30 10 -1 0 -2 -9 -3 -20 -1
-11 3 -20 8 -20 6 0 7 4 4 10 -3 5 -2 10 3 10 6 0 9 -11 8 -25 -1 -17 -6 -23
-16 -20 -8 2 -28 7 -45 10 -28 6 -29 5 -12 -8 17 -14 17 -16 -4 -31 -18 -12
-20 -16 -7 -21 18 -7 20 -35 2 -35 -6 0 -14 7 -18 15 -3 8 -10 15 -16 15 -6 0
-8 -5 -4 -12 5 -8 -3 -9 -29 -5 -45 7 -49 1 -6 -10 16 -5 30 -12 29 -17 -1 -4
7 -15 17 -23 16 -13 16 -14 1 -9 -10 3 -17 2 -17 -2 1 -4 1 -14 0 -22 -1 -11
-4 -11 -13 -2 -17 17 -33 15 -18 -3 9 -10 9 -15 1 -15 -6 0 -10 -3 -9 -7 1 -5
-2 -19 -6 -32 -5 -15 -4 -26 3 -30 17 -11 22 -52 10 -68 -15 -17 -29 -17 -29
2 0 8 -4 15 -10 15 -5 0 -10 -9 -10 -20 0 -22 -15 -27 -24 -7 -3 6 -3 0 -1
-15 2 -15 6 -32 10 -37 3 -6 -5 -8 -19 -5 -19 3 -26 -1 -29 -18 l-4 -23 -2 23
c0 12 -6 22 -12 22 -6 0 -9 -9 -6 -20 6 -22 -12 -27 -31 -8 -9 9 -13 7 -19 -8
-10 -28 -28 -43 -42 -35 -6 4 -9 15 -5 24 3 9 2 17 -4 17 -10 0 -27 -47 -23
-63 1 -5 -3 -6 -9 -2 -5 3 -10 12 -10 20 0 20 -32 28 -43 10 -12 -23 -40 1
-33 29 3 12 1 28 -4 36 -7 11 -10 6 -10 -19 0 -44 -14 -31 -17 15 -1 22 2 32
9 28 6 -4 9 -1 6 6 -11 33 -28 20 -30 -22 -1 -36 -2 -38 -5 -10 -2 17 -8 32
-13 32 -12 0 -19 -25 -14 -52 5 -22 5 -22 -9 -5 -15 18 -15 18 -20 0 -3 -13
-5 -12 -6 7 -1 19 -4 21 -13 12 -18 -18 -38 -14 -38 8 0 31 -20 24 -26 -10 -7
-30 -24 -42 -24 -16 0 7 -7 19 -15 26 -12 10 -15 9 -15 -6 -1 -18 -1 -18 -14
-2 -7 10 -16 15 -19 12 -3 -3 -1 10 5 30 11 33 28 49 28 25 0 -5 5 -7 10 -4 6
3 10 13 10 21 0 9 -5 12 -12 8 -8 -5 -9 -2 -4 11 7 18 6 18 -12 1 -19 -16 -20
-16 -27 11 -5 15 -8 31 -7 36 1 4 -4 7 -12 7 -23 0 -27 29 -6 50 11 11 24 20
28 20 5 0 8 10 7 22 -2 19 -8 23 -35 21 -18 -1 -36 -7 -40 -13 -6 -9 -9 -9
-16 1 -4 7 -3 14 4 17 7 2 12 8 12 13 0 4 -7 6 -15 3 -21 -8 -19 6 3 22 14 11
12 12 -19 5 -20 -5 -42 -11 -48 -15 -22 -14 -10 14 13 29 13 9 26 25 29 35 5
18 3 19 -23 5 l-29 -15 10 33 c11 40 11 39 -3 32 -7 -4 -4 1 6 9 17 14 17 16
3 16 -16 0 -20 -3 -57 -50 -16 -21 -20 -22 -21 -7 -1 9 -3 22 -4 27 -1 6 -3
14 -4 19 -2 14 -38 20 -51 7 -10 -8 -10 -6 -1 12 6 12 17 22 23 22 6 0 9 3 5
6 -3 3 5 25 19 48 19 30 20 35 5 18 -11 -13 -25 -20 -31 -17 -6 4 -21 -1 -32
-12 -21 -18 -21 -18 -7 4 18 30 8 36 -34 18 -29 -12 -35 -12 -33 -1 1 8 8 21
16 30 10 13 15 14 21 4 7 -10 12 -9 25 4 16 16 16 17 -7 14 -33 -5 -60 -16
-83 -35 -11 -9 -16 -10 -12 -3 4 7 2 12 -6 12 -7 0 2 13 20 29 35 32 40 44 17
35 -8 -4 -12 -11 -8 -17 4 -6 0 -8 -11 -4 -9 4 -15 3 -12 -2 3 -4 -6 -14 -19
-21 -13 -7 -26 -20 -27 -29 -3 -14 -5 -14 -11 2 -5 13 0 20 19 27 14 6 22 15
19 21 -5 7 -15 5 -31 -6 -21 -13 -24 -13 -24 -1 0 8 -5 18 -12 22 -7 4 -8 3
-4 -4 4 -8 2 -10 -8 -6 -13 5 -11 12 11 45 14 21 32 39 40 39 9 0 13 6 9 15
-3 8 -1 15 4 15 6 0 10 4 10 10 0 5 -7 6 -17 3 -10 -4 -14 -2 -10 4 8 13 -17
25 -29 13 -5 -5 -15 -2 -21 5 -10 11 -9 17 5 27 9 7 18 22 19 33 1 16 -5 20
-28 22 -17 1 -29 -3 -29 -10 0 -7 -4 -6 -10 3 -9 13 -10 13 -10 0 0 -21 -37
-44 -43 -27 -4 9 -6 9 -6 -1 -1 -7 -5 -11 -9 -8 -5 3 -8 -19 -8 -49 1 -54 -8
-73 -17 -37 -4 16 -5 16 -6 0 0 -10 -5 -18 -11 -18 -5 0 -7 -6 -4 -14 7 -18
-14 -59 -26 -51 -5 3 -11 -4 -15 -15 -10 -31 -22 -23 -19 13 3 29 3 30 -5 7
-5 -14 -9 -20 -10 -13 -2 24 -32 5 -52 -33 -12 -21 -30 -48 -40 -59 -20 -20
-20 -20 -9 8 5 16 8 33 5 38 -4 5 0 6 8 3 21 -8 32 28 13 42 -12 8 -13 13 -4
22 9 9 9 15 1 23 -8 8 -13 5 -18 -10 -3 -12 -13 -21 -20 -21 -9 0 -12 6 -8 18
6 15 3 14 -17 -3 -19 -17 -22 -17 -17 -3 4 12 -6 8 -38 -13 -24 -16 -46 -35
-48 -42 -3 -7 -6 -8 -6 -1 -1 12 28 44 74 82 15 12 25 26 21 29 -3 4 -13 -2
-21 -13 -8 -10 -15 -15 -15 -10 0 5 -10 1 -22 -10 l-21 -19 17 26 c9 15 26 29
37 32 11 3 23 15 26 26 8 31 18 25 18 -11 0 -44 22 -47 40 -4 20 47 19 54 -5
26 -18 -20 -20 -21 -20 -5 0 10 6 26 13 34 7 9 19 30 25 46 13 31 6 26 -25
-22 -7 -10 -12 -13 -12 -8 1 6 1 16 0 24 -2 21 -27 -4 -41 -42 -14 -34 -107
-137 -125 -137 -5 1 1 10 14 21 13 11 25 31 27 45 1 14 9 33 16 42 21 25 21
62 0 55 -14 -5 -13 -1 4 18 12 13 24 38 28 54 l7 30 -18 -23 c-10 -12 -29 -24
-42 -27 -13 -2 -46 -23 -73 -45 -26 -23 -48 -36 -48 -29 0 8 -4 8 -15 -1 -10
-8 -12 -17 -7 -22 13 -13 3 -48 -14 -48 -8 0 -14 5 -14 10 0 6 5 10 11 10 6 0
3 7 -6 16 -15 16 -13 19 29 47 25 16 46 34 46 39 0 5 6 6 13 2 6 -4 9 -3 4 1
-4 5 0 17 9 26 9 10 18 30 20 44 1 14 8 32 14 40 7 8 9 15 5 15 -4 0 -16 -11
-27 -25 -11 -14 -24 -25 -30 -25 -6 0 -3 9 7 20 10 11 13 20 8 20 -10 0 -20
-17 -24 -38 -2 -15 -34 -62 -41 -62 -12 0 -10 8 8 36 9 13 14 27 11 31 -4 3
-12 -6 -18 -21 -7 -14 -16 -26 -21 -26 -4 0 -8 -6 -8 -14 0 -7 -6 -19 -14 -25
-11 -9 -15 -8 -20 5 -4 10 -12 14 -22 10 -14 -5 -15 -4 -4 9 7 8 18 15 26 15
7 0 16 4 19 10 4 6 -4 9 -17 7 -18 -1 -22 2 -20 18 2 10 11 25 20 32 14 10 15
12 2 13 -9 0 -4 9 15 25 37 30 18 33 -21 3 -35 -28 -55 -32 -47 -10 4 12 -2 9
-21 -8 -22 -19 -26 -21 -20 -6 7 18 6 18 -22 0 -26 -17 -27 -17 -15 -1 7 9 11
17 7 17 -4 0 2 12 11 27 10 15 12 24 6 20 -9 -6 -11 -3 -6 9 5 13 3 15 -8 9
-11 -6 -12 -5 -1 6 6 7 12 17 12 22 0 4 -6 5 -12 1 -9 -5 -9 -2 1 9 17 22 7
22 -26 0 -19 -13 -25 -14 -18 -4 6 11 4 13 -8 8 -12 -4 -17 -1 -17 10 0 10 -4
13 -13 7 -7 -5 -1 1 13 13 23 21 19 30 -14 24 -5 -1 -6 6 -2 15 5 13 3 14 -6
7 -7 -5 -22 -13 -33 -17 -15 -5 -12 1 10 21 17 15 26 25 21 21 -6 -5 -24 -8
-40 -8 -17 0 -26 4 -20 8 6 4 16 17 23 30 9 17 17 21 36 16 15 -4 25 -2 25 4
0 6 3 19 6 29 4 11 3 14 -3 7 -4 -6 -19 -15 -33 -19 -23 -7 -24 -6 -11 9 15
18 23 76 11 76 -13 0 -32 -29 -27 -42 5 -15 -10 -48 -21 -48 -10 0 -9 66 0 76
4 3 -2 20 -13 36 -21 28 -21 30 -3 43 18 13 18 15 -4 30 -19 14 -21 19 -10 33
11 13 10 15 -4 9 -10 -3 -18 -2 -18 2 0 5 7 12 15 15 12 4 13 11 7 23 -5 10
-8 37 -6 61 1 29 -1 40 -9 35 -7 -4 -6 1 1 10 12 14 12 19 -2 33 -14 13 -19
14 -33 2 -14 -11 -14 -9 1 20 9 18 15 39 12 45 -2 7 -5 4 -5 -5 -1 -9 -5 -19
-10 -22 -18 -12 -4 67 15 81 10 7 14 13 9 13 -5 0 -17 -7 -27 -17 -25 -22 -23
-2 3 26 11 12 18 28 15 36 -2 7 2 19 10 25 8 7 14 18 14 26 0 7 7 19 15 28 9
9 11 17 5 21 -5 3 -14 -5 -20 -19 -5 -14 -12 -26 -14 -26 -7 0 4 31 16 46 5 7
8 25 8 40 -1 16 1 44 3 61 3 32 3 32 -17 15 -19 -16 -19 -16 -11 3 18 44 27
194 13 221 -7 16 -1 78 10 107 15 35 16 70 2 62 -13 -8 -14 -13 15 80 14 44
25 87 25 96 0 30 19 37 63 24 126 -39 138 -62 172 -325 8 -69 25 -159 37 -200
19 -63 30 -83 73 -126 56 -57 115 -83 255 -116 47 -11 92 -23 100 -27 8 -4 32
-6 53 -3 20 2 37 0 37 -5 0 -10 381 -9 435 1 101 18 140 39 215 115 42 42 85
94 97 116 11 22 28 54 37 70 9 17 37 81 62 143 56 135 73 152 155 152 89 0
107 -20 157 -177 63 -196 75 -243 74 -290 -1 -26 4 -46 11 -49 7 -2 13 -22 14
-43 1 -22 9 -53 18 -71 9 -17 17 -46 17 -63 1 -40 18 -60 34 -39 9 13 16 7 43
-32 18 -25 37 -60 43 -76 6 -19 17 -30 28 -30 11 0 22 -4 25 -10 3 -5 1 -10
-4 -10 -6 0 -11 -5 -11 -11 0 -7 11 -9 30 -5 17 3 29 2 26 -2 -2 -4 4 -8 15
-8 10 0 19 6 19 13 0 7 -3 12 -7 11 -13 -3 -86 32 -80 38 3 3 14 1 25 -5 26
-14 32 -14 32 -1 0 6 -5 10 -11 10 -7 0 -20 9 -30 21 -10 11 -23 18 -28 14
-14 -8 -14 1 -1 25 7 14 6 23 -5 34 -8 8 -15 19 -15 24 0 5 -8 16 -17 23 -11
10 -14 10 -9 2 12 -21 -9 -14 -31 10 -21 23 -38 71 -22 61 5 -3 9 0 9 5 0 12
10 11 200 -23 271 -48 591 -30 740 42 30 14 59 28 64 30 5 3 6 -8 3 -24 -3
-16 -1 -37 5 -48 6 -10 6 -21 1 -25 -11 -8 -11 -121 0 -114 5 3 5 -3 -1 -13
-5 -11 -9 -32 -8 -49 1 -16 -2 -35 -7 -42 -10 -15 2 -63 17 -63 6 0 4 -5 -4
-10 -12 -7 -14 -28 -12 -100 1 -67 -1 -90 -10 -90 -9 -1 -7 -5 4 -13 11 -9 13
-18 7 -29 -6 -11 -5 -19 2 -24 8 -4 9 -3 5 4 -4 7 7 20 29 33 20 12 32 25 26
28 -14 9 28 73 45 67 8 -3 11 2 9 15 -2 10 1 19 7 19 7 0 9 16 4 47 -5 37 -14
53 -46 83 -40 37 -55 78 -25 66 12 -4 13 -2 3 14 -7 10 -16 17 -20 14 -4 -3
-5 2 -2 10 3 8 12 12 20 9 15 -6 15 4 -2 80 -4 18 -1 27 6 27 8 0 10 10 7 26
-3 16 0 28 9 31 8 3 14 17 14 33 0 15 9 35 20 45 24 21 26 35 5 35 -8 0 -19 9
-25 20 -9 16 -7 22 7 28 18 7 19 15 26 107 3 38 47 189 53 182 2 -1 4 -19 6
-40 1 -20 5 -37 9 -37 4 0 6 -6 6 -12 -2 -19 24 -101 29 -95 3 2 7 29 9 58 3
29 11 56 17 61 10 6 10 8 1 8 -7 0 -13 14 -13 33 0 45 -5 75 -13 83 -4 4 -7
25 -7 46 0 27 4 38 15 38 8 0 15 5 15 11 0 5 -4 7 -10 4 -18 -11 -11 7 23 59
27 43 32 61 35 126 4 73 3 76 -27 104 -17 17 -31 35 -31 42 0 13 -67 83 -95
99 -15 9 -16 14 -5 35 25 46 38 129 28 173 -5 23 -6 58 -2 77 4 19 8 78 9 131
1 52 5 101 9 107 4 7 4 18 1 25 -4 6 1 3 11 -8 l17 -20 -8 20 c-4 11 -11 43
-15 70 -13 87 -29 154 -44 184 -9 16 -20 51 -26 77 -6 27 -13 56 -17 64 -3 8
-7 20 -9 27 -1 7 -9 26 -17 43 -9 18 -11 30 -5 30 6 0 8 9 3 23 -3 12 -7 29
-7 37 0 30 -58 251 -73 280 -8 16 -15 37 -15 48 0 10 -7 27 -15 38 -8 10 -15
25 -15 32 0 8 -8 26 -19 40 -10 15 -22 43 -26 62 -4 19 -13 42 -19 50 -24 29
-56 101 -56 125 0 14 -4 25 -10 25 -5 0 -10 6 -10 14 0 8 -26 32 -57 53 -31
21 -61 47 -67 58 -88 163 -167 245 -236 245 -22 0 -51 9 -71 23 -19 13 -40 22
-48 19 -7 -2 -19 6 -28 18 -8 12 -21 19 -29 16 -8 -3 -14 -1 -14 3 0 9 -34 32
-149 105 -62 39 -171 93 -406 201 -51 24 -98 32 -215 39 -36 3 -78 7 -95 9
-16 3 -64 1 -105 -4z m-1139 -556 c13 -16 12 -17 -3 -4 -10 7 -18 15 -18 17 0
8 8 3 21 -13z m2649 -223 c0 -5 -2 -10 -4 -10 -3 0 -8 5 -11 10 -3 6 -1 10 4
10 6 0 11 -4 11 -10z m-1375 -292 c-5 -20 -4 -21 7 -8 7 9 19 15 26 14 6 -1
17 -2 23 -3 11 -1 9 -37 -6 -76 -5 -16 -3 -15 14 5 11 14 19 30 16 37 -2 7 9
19 25 27 18 8 30 10 30 4 0 -6 8 -7 18 -3 32 13 83 17 95 7 7 -5 26 -9 42 -8
17 1 36 -3 43 -8 7 -5 12 -4 12 3 0 14 47 15 52 0 2 -6 21 -12 43 -13 27 -2
41 -9 46 -22 5 -13 8 -14 8 -4 1 10 4 11 9 3 5 -8 21 -9 50 -3 34 6 45 4 49
-7 5 -11 9 -11 24 3 18 16 19 16 19 1 0 -23 20 -22 21 1 0 13 2 12 9 -5 10
-23 50 -33 50 -12 0 8 5 7 15 -1 9 -7 18 -10 22 -7 3 4 12 -1 19 -11 12 -16
13 -16 31 1 24 21 37 22 30 3 -4 -11 -1 -13 10 -9 10 4 14 2 10 -4 -4 -5 4
-15 17 -21 18 -8 29 -7 44 4 17 11 26 12 46 2 14 -6 26 -17 26 -24 0 -19 29
-25 38 -7 6 10 16 14 27 9 11 -4 22 0 30 10 11 16 12 16 18 0 4 -9 2 -16 -3
-16 -5 0 -7 -7 -4 -15 6 -16 26 -21 21 -6 -1 5 1 9 6 10 4 1 7 -1 7 -4 0 -10
35 -42 42 -38 11 6 68 -39 68 -53 0 -6 7 -17 15 -24 8 -7 12 -16 9 -21 -6 -11
41 -115 56 -124 6 -3 23 -32 39 -64 28 -56 36 -93 47 -211 2 -30 7 -73 9 -95
3 -22 10 -105 15 -185 6 -80 15 -158 20 -175 5 -16 11 -43 14 -60 2 -16 5 -30
6 -30 1 0 10 -38 20 -85 11 -47 26 -110 35 -140 8 -30 15 -74 15 -97 0 -37 -3
-43 -21 -43 -11 0 -18 -4 -14 -10 3 -5 -7 -5 -25 2 -18 6 -34 18 -38 27 -5 14
-17 25 -81 79 -10 8 -11 11 -2 6 9 -5 12 -3 7 5 -9 14 -82 52 -110 57 -78 12
-76 12 -64 -9 9 -17 8 -19 -8 -12 -40 17 -93 4 -64 -16 15 -9 -2 -9 -100 5
l-35 5 25 -15 25 -15 -27 4 c-16 2 -26 0 -25 -7 1 -6 -4 -10 -12 -8 -7 1 -19
-2 -26 -8 -7 -6 -17 -10 -21 -9 -21 3 -87 -4 -71 -8 33 -9 17 -19 -31 -20 -27
0 -54 -3 -59 -6 -13 -8 -135 -36 -183 -41 -19 -3 -60 -7 -90 -10 -30 -3 -71
-10 -90 -14 -75 -18 -193 -13 -320 13 -69 14 -199 40 -290 56 -91 16 -188 37
-216 45 -27 8 -73 16 -101 17 -28 1 -50 4 -48 7 6 10 -50 5 -57 -5 -5 -6 -8
-4 -8 4 0 14 -42 12 -82 -4 -11 -4 -18 -3 -18 5 0 35 -74 55 -201 53 -55 -1
-89 -7 -119 -22 -111 -53 -252 -63 -358 -25 -60 22 -73 46 -49 91 8 15 20 40
27 55 7 15 21 36 30 46 9 9 19 28 22 40 5 19 4 21 -8 11 -25 -21 -25 -3 1 26
13 16 22 31 20 34 -3 2 0 9 5 16 5 6 11 41 14 77 2 35 9 75 16 88 7 12 7 20 2
16 -9 -5 -2 16 33 109 7 16 6 18 -6 8 -7 -7 -16 -13 -20 -13 -11 0 -3 83 10
108 6 12 9 22 5 22 -3 0 -2 6 3 13 6 6 13 23 16 35 6 23 5 24 -16 5 -20 -17
-20 -17 2 14 12 18 19 38 15 44 -4 8 -3 9 4 5 7 -4 13 0 13 11 4 41 5 50 13
91 4 23 12 39 17 36 6 -3 9 9 7 28 -2 42 10 67 24 47 6 -10 8 -7 7 11 -3 35
21 121 32 114 5 -3 9 2 9 10 0 17 20 18 32 2 3 -5 10 5 15 24 5 18 15 36 22
38 8 3 11 0 7 -6 -3 -6 -2 -13 4 -17 5 -3 10 3 10 14 0 12 6 21 13 21 8 0 7 3
-3 10 -12 7 -9 12 17 20 21 8 30 16 26 26 -3 8 0 14 6 14 6 0 11 5 11 11 0 8
-4 9 -13 0 -8 -6 -17 -8 -20 -4 -12 11 -8 23 8 23 9 0 18 6 21 13 8 22 34 16
34 -7 0 -17 4 -15 22 13 12 19 23 30 25 25 2 -5 24 -8 49 -7 25 0 58 -5 72
-13 15 -8 33 -14 40 -14 6 0 12 -6 12 -12 0 -7 10 -2 21 12 11 14 18 19 14 13
-3 -7 -1 -13 4 -13 6 0 11 5 11 11 0 5 5 7 11 4 6 -5 4 -12 -8 -20 -17 -13
-17 -14 2 -14 11 0 35 -2 53 -6 20 -4 32 -2 32 4 0 6 -5 11 -11 11 -5 0 -7 5
-4 10 10 16 45 12 75 -10 26 -18 40 -18 40 2 0 4 -6 8 -14 8 -19 0 -29 17 -22
37 5 12 9 13 20 4 10 -8 16 -9 21 -1 3 5 11 10 17 10 6 0 3 -10 -8 -22 -17
-19 -17 -21 -1 -15 9 4 17 2 17 -3 0 -6 -4 -10 -10 -10 -5 0 -10 -4 -10 -9 0
-10 12 -9 45 3 54 20 59 24 23 19 -24 -4 -38 -2 -38 5 0 6 8 11 18 11 63 0 91
4 87 11 -3 5 4 6 15 3 11 -3 31 2 44 10 13 9 36 18 50 21 14 3 31 8 37 12 8 4
9 3 5 -4 -5 -8 2 -11 23 -8 20 2 32 -2 36 -12 4 -11 8 -12 19 -3 10 8 16 9 21
1 12 -19 26 -10 20 13 -5 14 2 9 19 -15 15 -21 32 -38 38 -38 6 0 4 8 -6 19
-15 17 -15 19 1 32 15 12 16 12 10 -3 -3 -10 -3 -20 2 -22 4 -3 13 11 20 30
14 38 26 47 16 12z m-572 -62 c4 -10 0 -12 -14 -9 -22 6 -26 23 -5 23 8 0 16
-6 19 -14z m-70 -13 c-7 -2 -19 -2 -25 0 -7 3 -2 5 12 5 14 0 19 -2 13 -5z
m1567 -27 c0 -2 -7 -7 -16 -10 -8 -3 -12 -2 -9 4 6 10 25 14 25 6z m-2011 -43
c-1 -33 -2 -35 -8 -13 -4 14 -6 31 -3 38 8 22 12 13 11 -25z m35 2 c-4 -8 -8
-15 -10 -15 -2 0 -4 7 -4 15 0 8 4 15 10 15 5 0 7 -7 4 -15z m-84 -79 c0 -3
-4 -8 -10 -11 -5 -3 -10 -1 -10 4 0 6 5 11 10 11 6 0 10 -2 10 -4z m-505
-1244 c-3 -3 -11 0 -18 7 -9 10 -8 11 6 5 10 -3 15 -9 12 -12z m3315 -41 c0
-6 -4 -13 -10 -16 -5 -3 -10 1 -10 9 0 9 5 16 10 16 6 0 10 -4 10 -9z m-2309
-115 c79 -13 157 -38 221 -72 14 -8 32 -14 40 -14 7 0 33 -10 58 -22 25 -11
55 -20 66 -19 12 1 24 -5 28 -14 4 -12 10 -14 25 -5 29 15 38 12 15 -5 -17
-13 -17 -14 -1 -15 9 0 25 -8 35 -17 10 -10 27 -19 37 -21 68 -10 73 -9 67 6
-4 11 -1 14 11 9 8 -3 18 -1 20 6 3 7 4 -1 3 -18 -1 -16 -7 -30 -13 -30 -17 0
-28 -15 -12 -16 8 -1 17 -1 22 0 11 2 9 -17 -3 -24 -6 -3 -7 -17 -4 -31 3 -13
2 -24 -2 -24 -5 0 -10 -10 -10 -23 -2 -30 -85 -220 -128 -295 -41 -69 -115
-137 -166 -153 -80 -24 -252 -32 -405 -20 -314 24 -447 85 -492 226 -10 34
-17 103 -20 213 -5 148 -4 162 12 162 43 0 77 -35 120 -125 24 -49 47 -103 51
-120 12 -51 66 -75 79 -35 3 11 13 20 21 20 8 0 14 7 14 15 0 8 5 15 11 15 7
0 17 8 24 17 21 28 172 16 161 -13 -5 -12 -2 -12 15 -3 11 6 27 8 34 5 8 -3
17 -1 20 3 6 11 -19 21 -53 21 -15 0 -36 8 -47 17 -16 12 -16 14 -3 10 22 -8
33 9 14 20 -12 7 -12 11 -2 26 12 16 15 14 37 -18 13 -19 31 -36 39 -37 8 -1
31 -3 50 -4 72 -5 102 -16 95 -32 -5 -13 -2 -12 14 2 11 10 24 15 30 12 5 -4
12 -2 16 4 3 5 3 10 -2 10 -4 0 -14 4 -22 9 -11 7 -9 15 10 41 16 22 24 45 24
74 l0 43 32 -7 c79 -18 116 -76 73 -115 -11 -10 -20 -23 -20 -29 0 -6 5 -4 11
4 9 12 10 11 6 -7 -3 -13 -1 -26 4 -29 20 -12 6 -25 -56 -56 -36 -17 -63 -33
-61 -35 2 -2 32 7 67 21 34 14 65 24 67 21 3 -3 0 -5 -6 -5 -7 0 -12 -7 -12
-15 0 -8 -6 -15 -12 -15 -7 0 -27 -13 -44 -30 -18 -16 -47 -38 -65 -49 -32
-20 -33 -21 -9 -21 14 1 59 14 100 30 41 17 92 30 112 30 29 0 36 3 32 15 -5
11 -2 13 12 8 13 -5 16 -3 11 9 -4 11 2 18 18 22 21 5 23 11 20 56 -3 52 7 64
25 30 14 -25 36 -26 43 -1 3 15 1 18 -11 14 -11 -5 -14 -2 -9 11 4 10 1 19 -8
22 -8 4 -15 11 -15 16 0 6 7 7 15 4 11 -4 19 3 26 21 7 20 13 23 21 15 20 -20
28 -14 26 17 -1 16 -5 28 -10 25 -4 -2 -12 4 -17 15 -8 14 -8 21 2 24 7 4 5 6
-5 7 -10 2 -22 3 -28 4 -5 0 -16 10 -25 21 -9 11 -14 15 -11 8 4 -6 2 -14 -4
-18 -5 -3 -10 -1 -10 5 0 6 -4 8 -10 5 -5 -3 -10 -2 -10 4 0 6 -7 8 -15 5 -12
-5 -14 -2 -8 12 6 17 5 17 -10 5 -12 -9 -31 -11 -64 -7 -79 11 -258 16 -198 6
67 -11 122 -35 135 -61 11 -19 10 -20 -11 -9 -56 31 -151 49 -227 44 -103 -6
-162 -13 -173 -19 -5 -4 -9 -1 -9 6 0 6 -8 9 -20 6 -11 -3 -20 -1 -20 3 0 10
88 30 131 30 18 0 28 4 24 10 -11 18 -116 3 -250 -35 -57 -15 -81 85 -31 128
11 10 33 21 48 24 15 3 27 8 26 12 -2 19 5 20 35 6 28 -14 30 -14 13 0 -21 16
-21 16 41 19 23 0 45 4 49 9 10 9 15 9 115 -7z m1791 -57 c23 -12 36 -11 18 2
-11 7 8 8 66 4 91 -8 166 -22 124 -24 -37 -2 -63 -26 -62 -58 0 -15 -4 -36 -9
-45 -13 -25 -70 -33 -105 -15 -40 19 -133 36 -234 41 -88 5 -120 12 -120 27 0
12 49 43 57 36 3 -4 15 -1 27 5 11 7 32 14 46 15 14 2 45 10 70 17 44 14 89
12 122 -5z m335 -35 c-3 -3 -12 -4 -19 -1 -8 3 -5 6 6 6 11 1 17 -2 13 -5z
m-439 -83 c49 -10 65 -21 54 -38 -6 -9 -18 -9 -47 -2 -91 24 -233 31 -290 16
-28 -8 -29 -7 -10 6 11 8 32 17 45 20 43 8 203 6 248 -2z m-2848 -11 c0 -5 -2
-10 -4 -10 -3 0 -8 5 -11 10 -3 6 -1 10 4 10 6 0 11 -4 11 -10z m-174 -16 c-3
-9 -6 -18 -6 -20 0 -2 -4 -4 -9 -4 -5 0 -7 9 -4 20 3 11 10 20 15 20 6 0 7 -7
4 -16z m3576 -246 c1 -93 -2 -171 -5 -175 -4 -3 -7 -20 -7 -37 0 -41 -50 -126
-97 -165 -48 -40 -109 -57 -248 -71 -120 -13 -268 -7 -414 16 -105 16 -172 42
-214 82 -29 27 -63 82 -52 82 4 0 0 6 -8 14 -13 13 -66 162 -82 231 l-7 30 21
-27 c12 -14 21 -31 21 -37 0 -6 6 -8 13 -5 7 2 24 -4 37 -16 25 -21 56 -28 44
-9 -5 8 1 10 20 7 20 -4 24 -2 17 5 -6 6 -11 15 -11 21 0 6 5 5 12 -2 21 -21
27 -13 13 15 -8 15 -25 35 -37 45 -13 9 -19 20 -14 25 5 4 11 3 13 -4 2 -7 11
-9 20 -6 11 4 14 2 9 -5 -4 -7 4 -14 21 -18 15 -4 39 -12 53 -19 14 -7 36 -15
50 -19 14 -3 -4 8 -39 26 -36 18 -63 38 -60 43 2 6 10 9 16 9 7 -1 10 3 7 8
-4 6 2 8 15 3 35 -11 24 14 -14 32 -50 24 -47 71 6 99 29 14 29 14 29 -13 0
-16 7 -41 15 -57 16 -30 16 -56 2 -67 -5 -3 0 -9 11 -11 14 -4 19 -2 16 7 -7
18 22 26 53 14 15 -5 50 -7 77 -4 44 6 55 12 80 46 44 57 100 48 80 -14 -3
-11 -2 -17 3 -14 5 3 15 2 23 -4 12 -7 11 -9 -5 -10 -11 -1 -24 -1 -30 0 -5 1
-3 -4 5 -12 19 -19 86 -34 76 -18 -5 8 0 8 18 1 19 -7 26 -6 26 3 0 6 6 3 12
-8 6 -11 24 -33 39 -49 24 -23 32 -26 44 -16 8 7 23 9 32 6 15 -6 16 -5 6 5
-15 15 -17 33 -4 25 9 -6 27 49 19 57 -8 8 80 88 101 92 14 2 27 8 30 12 10
14 71 44 71 36 0 -4 4 -3 8 2 4 6 16 15 27 21 17 10 21 8 28 -15 4 -14 8 -101
9 -193z m-762 172 c0 -11 -7 -20 -15 -20 -8 0 -15 9 -15 20 0 11 7 20 15 20 8
0 15 -9 15 -20z m-1460 -5 c0 -8 -9 -15 -20 -15 -20 0 -26 11 -13 23 12 13 33
7 33 -8z m93 1 c6 -16 -16 -40 -26 -29 -4 3 -7 15 -7 25 0 21 25 24 33 4z
m1465 -9 c2 -12 -3 -17 -17 -17 -12 0 -21 6 -21 13 0 31 32 34 38 4z m-1248
-63 c0 -2 -7 -4 -15 -4 -8 0 -15 4 -15 10 0 5 7 7 15 4 8 -4 15 -8 15 -10z
m32 -6 c-7 -7 -12 -8 -12 -2 0 14 12 26 19 19 2 -3 -1 -11 -7 -17z m908 12 c0
-5 -4 -10 -10 -10 -5 0 -10 5 -10 10 0 6 5 10 10 10 6 0 10 -4 10 -10z m-950
-100 c-8 -5 -19 -10 -25 -10 -5 0 -3 5 5 10 8 5 20 10 25 10 6 0 3 -5 -5 -10z
m1985 -310 c3 -5 1 -10 -4 -10 -6 0 -11 5 -11 10 0 6 2 10 4 10 3 0 8 -4 11
-10z m-1165 -100 c0 -5 -2 -10 -4 -10 -3 0 -8 5 -11 10 -3 6 -1 10 4 10 6 0
11 -4 11 -10z m20 -30 c0 -5 -2 -10 -4 -10 -3 0 -8 5 -11 10 -3 6 -1 10 4 10
6 0 11 -4 11 -10z m1104 -76 c3 -8 2 -12 -4 -9 -6 3 -10 10 -10 16 0 14 7 11
14 -7z m-27 -346 c-3 -8 -6 -5 -6 6 -1 11 2 17 5 13 3 -3 4 -12 1 -19z m-3197
8 c0 -3 -4 -8 -10 -11 -5 -3 -10 -1 -10 4 0 6 5 11 10 11 6 0 10 -2 10 -4z
m1630 -45 c0 -16 -13 -20 -31 -10 -27 14 -23 27 6 21 14 -2 25 -8 25 -11z
m105 -82 c16 0 34 -4 40 -8 5 -5 23 -11 38 -15 18 -4 25 -11 20 -19 -4 -8 -1
-7 10 2 15 12 18 10 27 -14 5 -14 10 -28 10 -31 0 -2 12 -23 26 -45 14 -23 23
-43 21 -45 -3 -3 -17 16 -31 41 -15 25 -32 45 -38 45 -5 0 -8 9 -5 20 3 11 1
18 -4 14 -5 -3 -9 -12 -9 -20 0 -11 -8 -14 -25 -12 -15 2 -30 -4 -40 -17 -16
-19 -16 -19 -10 9 l6 29 -25 -17 c-21 -13 -24 -14 -20 -1 4 8 1 15 -6 15 -6 0
-8 4 -5 10 4 6 -1 7 -11 3 -12 -4 -15 -3 -10 5 4 7 3 12 -2 12 -5 0 -14 11
-20 24 -10 23 -9 24 11 20 12 -3 35 -5 52 -5z m-368 -25 c-3 -3 -12 -4 -19 -1
-8 3 -5 6 6 6 11 1 17 -2 13 -5z m1273 -81 c0 -8 -38 17 -51 33 -9 11 -2 9 19
-6 17 -13 32 -25 32 -27z m-1378 7 c-18 -11 -30 -25 -27 -30 9 -15 43 -12 52
4 4 7 31 16 60 19 l52 6 -22 -22 c-12 -12 -25 -23 -29 -23 -5 -1 -12 -2 -18
-3 -5 0 -10 -5 -10 -11 0 -5 7 -7 15 -4 22 9 18 -7 -10 -38 -24 -28 -48 -40
-26 -14 19 23 -21 59 -51 47 -13 -5 -22 -14 -20 -21 1 -7 -3 -10 -10 -7 -13 4
-13 16 -3 64 3 12 18 29 33 37 41 23 52 19 14 -4z m1304 -18 c-4 -3 -14 2 -24
12 -16 18 -16 18 6 6 13 -6 21 -14 18 -18z m85 -43 c22 -28 26 -39 17 -45 -7
-4 -10 -3 -5 1 11 12 -33 55 -49 48 -13 -5 -13 -9 1 -29 17 -26 19 -34 7 -34
-4 0 -18 21 -30 48 -12 26 -16 39 -8 29 18 -23 28 -1 13 28 -9 18 -9 19 7 6 9
-8 30 -31 47 -52z m-676 40 c11 -17 -1 -21 -15 -4 -8 9 -8 15 -2 15 6 0 14 -5
17 -11z m716 -42 l23 -32 -23 20 c-13 11 -27 28 -33 39 -16 29 7 11 33 -27z
m-1774 17 c2 -5 -2 -18 -9 -27 -12 -15 -13 -14 -15 14 -2 28 16 38 24 13z
m956 -15 c-4 -16 -8 -17 -14 -7 -13 19 -11 28 5 28 9 0 12 -7 9 -21z m-882
-26 c-12 -20 -14 -14 -5 12 4 9 9 14 11 11 3 -2 0 -13 -6 -23z m-921 7 c0 -5
-5 -10 -11 -10 -5 0 -7 5 -4 10 3 6 8 10 11 10 2 0 4 -4 4 -10z m1317 -12 c-8
-21 11 -60 25 -52 17 11 71 6 79 -8 4 -6 18 -8 33 -4 14 3 29 6 33 5 4 0 10 8
14 18 7 16 8 15 8 -4 1 -19 6 -21 42 -19 27 2 46 -2 56 -13 22 -22 55 -26 160
-19 29 2 53 7 53 11 0 4 17 8 38 8 20 -1 97 1 169 2 73 2 137 0 143 -3 23 -14
-20 -31 -87 -35 -108 -6 -167 -16 -184 -31 -9 -8 -20 -14 -25 -13 -9 2 -23 -2
-71 -22 -15 -5 -23 -5 -23 2 0 6 -6 6 -17 0 -10 -5 -40 -5 -66 -1 -27 4 -59 6
-72 5 -15 -2 -25 3 -28 15 -3 13 -12 18 -31 16 -14 -2 -24 0 -21 3 2 4 -35 8
-83 9 -48 2 -96 4 -107 7 -11 2 -41 4 -67 4 -36 1 -48 5 -48 16 0 20 -16 19
-24 -1 -3 -8 -10 -12 -16 -9 -5 3 -10 0 -10 -7 0 -9 -3 -9 -10 2 -7 12 -13 13
-28 4 -16 -10 -18 -8 -20 16 -2 29 11 40 56 46 17 2 22 -1 18 -12 -3 -9 5 -6
25 8 26 19 31 20 39 8 7 -11 10 -12 10 -2 0 7 5 10 10 7 6 -4 9 -3 8 2 -3 11
12 53 19 53 3 0 3 -6 0 -12z m55 -10 c-7 -7 -12 -8 -12 -2 0 6 3 14 7 17 3 4
9 5 12 2 2 -3 -1 -11 -7 -17z m832 16 c9 -3 16 -14 16 -23 1 -15 2 -15 13 0
11 15 15 15 32 3 11 -9 14 -14 6 -14 -11 0 -11 -3 -1 -15 9 -11 9 -15 1 -15
-7 0 -9 -5 -5 -12 5 -8 1 -9 -12 -4 -15 6 -17 5 -6 -5 6 -7 12 -17 12 -22 0
-4 -6 -5 -12 0 -7 4 -23 6 -35 4 -18 -2 -23 3 -23 20 0 16 3 19 13 11 10 -8
13 -6 13 8 0 10 -5 18 -11 17 -5 -1 -10 5 -10 13 0 8 -4 21 -8 28 -9 14 -6 15
17 6z m-1354 -21 c0 -3 -8 -16 -17 -27 -18 -21 -18 -21 3 -3 24 20 44 22 44 5
0 -22 -18 -43 -37 -43 -24 0 -46 22 -37 37 19 32 44 49 44 31z m1779 -95 c12
-21 19 -38 14 -38 -8 0 -50 72 -62 105 -4 13 20 -21 48 -67z m-42 13 c24 -32
24 -34 4 -16 l-24 20 8 -25 c5 -20 2 -17 -19 12 -30 43 -31 45 -11 45 8 0 27
-16 42 -36z m-57 -10 c15 -28 12 -35 -7 -20 -15 13 -16 12 -11 -8 4 -13 2 -23
-3 -23 -5 0 -9 16 -7 35 2 39 12 45 28 16z m-72 -36 c-3 -3 -9 2 -12 12 -6 14
-5 15 5 6 7 -7 10 -15 7 -18z m30 -10 c-3 -3 -9 2 -12 12 -6 14 -5 15 5 6 7
-7 10 -15 7 -18z m-1578 -7 c0 -18 -2 -20 -9 -8 -6 8 -7 18 -5 22 9 14 14 9
14 -14z m2049 -5 c10 -23 10 -26 -1 -13 -7 8 -19 21 -27 28 -13 10 -13 12 0
12 9 0 21 -12 28 -27z m-2137 -5 c-7 -7 -12 -8 -12 -2 0 6 3 14 7 17 3 4 9 5
12 2 2 -3 -1 -11 -7 -17z m1792 14 c3 -5 2 -22 -3 -38 l-8 -29 -4 38 c-5 34 3
48 15 29z m-2427 -18 c2 -5 -3 -18 -10 -28 -13 -17 -14 -16 -14 13 0 29 16 39
24 15z m2280 -6 c-3 -8 -6 -5 -6 6 -1 11 2 17 5 13 3 -3 4 -12 1 -19z m67 -18
c8 -16 11 -30 6 -30 -4 0 -11 8 -14 17 -5 11 -10 13 -17 6 -8 -8 -8 -17 0 -31
16 -30 14 -40 -3 -16 -21 30 -14 82 11 84 1 0 8 -13 17 -30z m-2384 -5 c0 -1
-6 -8 -14 -14 -11 -9 -15 -7 -19 8 -3 14 0 17 14 14 11 -3 19 -7 19 -8z m201
-3 c-5 -10 -17 -24 -25 -32 -13 -10 -16 -10 -16 3 0 9 10 23 22 31 29 20 31
20 19 -2z m2529 -22 c0 -5 -2 -10 -4 -10 -3 0 -8 5 -11 10 -3 6 -1 10 4 10 6
0 11 -4 11 -10z m-2670 -34 c0 -2 -8 -10 -17 -17 -16 -13 -17 -12 -4 4 13 16
21 21 21 13z m1213 -18 c6 -22 0 -23 -19 -4 -18 18 -18 23 0 23 8 0 17 -9 19
-19z m1525 -11 c3 -21 -1 -26 -18 -24 -18 1 -19 3 -7 12 11 8 13 16 5 29 -8
14 -7 17 3 14 8 -3 15 -16 17 -31z m-381 1 c-3 -8 -6 -5 -6 6 -1 11 2 17 5 13
3 -3 4 -12 1 -19z m-2217 -38 c0 -5 -5 -10 -11 -10 -5 0 -7 5 -4 10 3 6 8 10
11 10 2 0 4 -4 4 -10z m549 -32 c5 -13 6 -27 3 -33 -3 -5 -7 -4 -10 3 -2 7
-10 12 -17 12 -8 0 -13 9 -12 20 2 27 26 25 36 -2z m-589 -3 c-7 -8 -17 -15
-22 -15 -6 0 -5 7 2 15 7 8 17 15 22 15 6 0 5 -7 -2 -15z m-14 -44 c-10 -10
-27 -21 -38 -24 -25 -7 -12 8 24 28 32 18 33 18 14 -4z m598 -7 c16 -6 12 -24
-5 -24 -6 0 -8 4 -5 9 4 5 0 12 -6 14 -7 3 -10 6 -6 6 3 1 13 -2 22 -5z m-594
-28 c-19 -13 -41 -21 -48 -19 -7 3 1 12 20 23 49 26 68 24 28 -4z m2470 -30
c0 -12 -5 -7 -19 24 -11 24 -11 24 3 6 9 -11 16 -24 16 -30z m-2535 -6 c-3 -5
-11 -10 -16 -10 -6 0 -7 5 -4 10 3 6 11 10 16 10 6 0 7 -4 4 -10z m80 0 c-3
-5 -12 -10 -18 -10 -7 0 -6 4 3 10 19 12 23 12 15 0z m45 2 c0 -4 -14 -14 -32
-21 -18 -8 -27 -16 -20 -19 7 -2 20 2 30 9 9 7 6 1 -7 -14 -26 -29 -65 -40
-41 -12 7 8 9 15 4 15 -11 0 48 49 59 50 4 0 7 -3 7 -8z m-163 -8 c-3 -3 -12
-4 -19 -1 -8 3 -5 6 6 6 11 1 17 -2 13 -5z m273 -19 c-7 -9 -15 -13 -19 -10
-3 3 1 10 9 15 21 14 24 12 10 -5z m1870 -5 c0 -5 -2 -10 -4 -10 -3 0 -8 5
-11 10 -3 6 -1 10 4 10 6 0 11 -4 11 -10z m-1954 -26 c-28 -20 -53 -19 -36 1
7 8 16 13 20 10 5 -3 12 0 15 6 4 5 10 7 13 4 4 -4 -2 -13 -12 -21z m73 -11
c-13 -16 -25 -30 -26 -32 -2 -2 -6 -2 -9 2 -4 3 7 17 22 31 38 33 43 33 13 -1z
m172 0 c-12 -20 -14 -14 -5 12 4 9 9 14 11 11 3 -2 0 -13 -6 -23z m1734 -1
c-3 -3 -11 0 -18 7 -9 10 -8 11 6 5 10 -3 15 -9 12 -12z m-1240 -55 c-20 -32
-72 -53 -72 -30 0 9 15 22 33 29 18 8 36 19 39 25 4 5 9 8 12 6 2 -3 -3 -17
-12 -30z m-718 -13 c-3 -3 -12 -4 -19 -1 -8 3 -5 6 6 6 11 1 17 -2 13 -5z
m1824 -82 c-7 -2 -18 1 -23 6 -8 8 -4 9 13 5 13 -4 18 -8 10 -11z m-1006 -31
c-3 -6 -11 -11 -17 -11 -6 0 -6 6 2 15 14 17 26 13 15 -4z m-25 -38 c-1 -18
-19 -35 -29 -28 -9 5 -7 11 6 21 21 16 23 16 23 7z m125 -118 c-29 -28 -27
-47 2 -24 17 12 17 12 1 -5 -19 -21 -40 -13 -31 11 5 13 2 15 -11 10 -11 -4
-15 -3 -11 4 4 6 13 8 20 5 7 -2 21 4 31 15 9 10 19 17 21 15 2 -2 -8 -16 -22
-31z m746 -58 c12 -22 12 -22 -10 -3 -11 11 -21 23 -21 28 0 14 19 -1 31 -25z
m19 -30 c9 2 8 -1 -3 -7 -10 -7 -19 -10 -20 -8 -1 1 -11 14 -22 28 l-20 25 25
-21 c14 -12 32 -20 40 -17z m-725 -26 c-3 -12 -11 -21 -16 -21 -6 0 -8 3 -6 8
2 4 7 16 11 26 9 25 20 13 11 -13z m635 -66 c0 -8 -7 -15 -15 -15 -16 0 -20
12 -8 23 11 12 23 8 23 -8z m-1760 -60 c7 -8 9 -15 6 -15 -4 0 -14 7 -22 15
-9 8 -11 15 -6 15 5 0 15 -7 22 -15z m2365 -4 c-3 -6 -11 -11 -16 -11 -5 0 -4
6 3 14 14 16 24 13 13 -3z m-1055 -10 c22 -41 6 -54 -30 -24 -24 21 -26 35 -3
26 11 -4 14 -3 9 5 -4 7 -3 12 3 12 6 0 15 -9 21 -19z m80 5 c0 -3 -4 -8 -10
-11 -5 -3 -10 -1 -10 4 0 6 5 11 10 11 6 0 10 -2 10 -4z m40 -41 c0 -14 -2
-25 -4 -25 -2 0 -6 11 -8 25 -3 14 -1 25 3 25 5 0 9 -11 9 -25z m-203 -17 c-3
-7 -5 -2 -5 12 0 14 2 19 5 13 2 -7 2 -19 0 -25z m110 10 c-3 -8 -6 -5 -6 6
-1 11 2 17 5 13 3 -3 4 -12 1 -19z m1010 -11 c0 -8 -6 -14 -14 -14 -9 0 -10 4
-2 14 6 7 12 13 14 13 1 0 2 -6 2 -13z m-890 -59 c-3 -8 -6 -5 -6 6 -1 11 2
17 5 13 3 -3 4 -12 1 -19z m-1293 1 c-3 -6 0 -16 7 -21 12 -8 11 -9 -1 -5 -18
4 -27 37 -10 37 6 0 8 -5 4 -11z m2131 -88 c-9 -29 -23 -17 -17 14 3 17 8 23
14 17 6 -6 7 -20 3 -31z m-25 -41 c0 -5 -5 -10 -11 -10 -5 0 -7 5 -4 10 3 6 8
10 11 10 2 0 4 -4 4 -10z m-1940 -58 c-7 -3 -19 3 -28 13 -16 15 -15 16 12 4
15 -7 23 -15 16 -17z m1901 -11 c-25 -25 -27 -15 -4 19 9 13 18 19 21 12 2 -6
-6 -20 -17 -31z m10 -95 c-7 -8 -9 -21 -5 -28 5 -10 4 -10 -5 -2 -10 9 -10 16
0 32 7 12 15 19 18 17 2 -3 -2 -11 -8 -19z m-1811 -16 c0 -5 -2 -10 -4 -10 -3
0 -8 5 -11 10 -3 6 -1 10 4 10 6 0 11 -4 11 -10z m1731 1 c-10 -7 -11 -13 -2
-30 10 -17 9 -20 -4 -15 -8 3 -12 10 -9 15 3 5 0 9 -7 9 -8 0 -8 4 1 15 7 8
18 15 24 15 6 0 5 -4 -3 -9z m-37 -53 c-4 -7 -14 -22 -23 -32 -9 -11 -10 -16
-3 -12 6 4 12 3 12 -2 0 -6 -12 -13 -27 -17 -16 -3 -37 -14 -47 -23 -15 -13
-13 -9 4 16 13 17 28 32 32 32 5 0 6 5 2 12 -4 6 -3 8 3 5 5 -3 17 3 26 14 19
21 32 26 21 7z m-1434 -69 c0 -6 -4 -7 -10 -4 -5 3 -10 11 -10 16 0 6 5 7 10
4 6 -3 10 -11 10 -16z m220 -119 c0 -5 -8 -10 -17 -10 -15 0 -16 2 -3 10 19
12 20 12 20 0z m784 -115 c-7 -16 -24 -21 -24 -6 0 8 7 13 27 20 1 1 0 -6 -3
-14z m-24 -35 c12 -8 11 -10 -7 -10 -13 0 -23 5 -23 10 0 13 11 13 30 0z m37
-15 c0 -8 -4 -15 -9 -15 -10 0 -11 14 -1 23 9 10 10 9 10 -8z m-117 -45 c0 -5
-7 -7 -15 -4 -8 4 -15 8 -15 10 0 2 7 4 15 4 8 0 15 -4 15 -10z m22 -719 c2
-17 1 -28 -4 -25 -8 5 -12 54 -4 54 2 0 6 -13 8 -29z m25 -148 c-3 -10 -5 -2
-5 17 0 19 2 27 5 18 2 -10 2 -26 0 -35z m-30 -47 c-2 -59 -11 -62 -22 -6 -4
26 -3 31 4 20 9 -12 11 -10 11 13 0 15 2 27 5 27 2 0 3 -25 2 -54z m-70 -38
c-3 -7 -5 -2 -5 12 0 14 2 19 5 13 2 -7 2 -19 0 -25z m49 -34 c-3 -8 -2 -12 3
-9 15 9 23 -12 12 -32 -5 -10 -15 -33 -21 -50 -16 -43 -30 -42 -30 1 0 19 -3
41 -6 50 -3 9 -1 16 5 16 6 0 10 -5 9 -11 -2 -6 3 -14 10 -16 9 -4 11 2 6 20
-3 14 -3 31 1 36 10 17 18 13 11 -5z m-169 -46 c-3 -8 -6 -5 -6 6 -1 11 2 17
5 13 3 -3 4 -12 1 -19z m123 -113 c0 -8 -2 -15 -4 -15 -2 0 -6 7 -10 15 -3 8
-1 15 4 15 6 0 10 -7 10 -15z"/>
<path d="M5210 7850 c-9 -6 -10 -10 -3 -10 6 0 15 5 18 10 8 12 4 12 -15 0z"/>
<path d="M5845 7790 c3 -5 13 -10 21 -10 8 0 14 5 14 10 0 6 -9 10 -21 10 -11
0 -17 -4 -14 -10z"/>
<path d="M4474 6113 c12 -12 54 -14 61 -3 4 6 -8 10 -31 10 -21 0 -34 -3 -30
-7z"/>
<path d="M4665 5860 c-3 -6 1 -7 9 -4 18 7 21 14 7 14 -6 0 -13 -4 -16 -10z"/>
<path d="M4480 5835 c-7 -9 -8 -15 -2 -15 5 0 12 7 16 15 3 8 4 15 2 15 -2 0
-9 -7 -16 -15z"/>
<path d="M4300 5829 c0 -5 5 -7 10 -4 6 3 10 8 10 11 0 2 -4 4 -10 4 -5 0 -10
-5 -10 -11z"/>
<path d="M5900 5852 c0 -5 7 -16 16 -23 14 -12 16 -11 13 5 -4 20 -29 35 -29
18z"/>
<path d="M6130 5854 c-8 -2 -36 -6 -63 -9 -26 -3 -45 -11 -42 -16 4 -5 10 -7
15 -4 5 3 20 1 32 -5 22 -11 22 -10 4 4 -22 18 -14 21 13 6 22 -11 73 1 63 15
-4 6 -14 10 -22 9z"/>
<path d="M5766 5797 c3 -10 9 -15 12 -12 3 3 0 11 -7 18 -10 9 -11 8 -5 -6z"/>
<path d="M6442 5409 c-7 -10 -8 -19 -3 -19 13 0 33 28 23 33 -4 3 -13 -3 -20
-14z"/>
<path d="M4737 4583 c-4 -3 -7 -11 -7 -17 0 -6 5 -5 12 2 6 6 9 14 7 17 -3 3
-9 2 -12 -2z"/>
<path d="M5815 4600 c3 -5 11 -10 16 -10 6 0 7 5 4 10 -3 6 -11 10 -16 10 -6
0 -7 -4 -4 -10z"/>
<path d="M3325 5381 c-3 -5 -1 -12 4 -15 5 -3 11 1 15 9 6 16 -9 21 -19 6z"/>
<path d="M4854 5235 c-5 -11 -10 -12 -24 -2 -31 19 -35 0 -11 -48 12 -25 20
-48 17 -53 -2 -4 4 -13 15 -20 17 -11 19 -9 19 19 0 43 38 108 54 92 3 -4 6 1
6 10 0 22 -16 22 -29 0 -9 -17 -10 -17 -16 0 -9 21 -24 22 -31 2z"/>
<path d="M3569 5103 c-13 -16 -12 -17 4 -4 9 7 17 15 17 17 0 8 -8 3 -21 -13z"/>
<path d="M6650 5116 c0 -2 7 -9 15 -16 13 -11 14 -10 9 4 -5 14 -24 23 -24 12z"/>
<path d="M3220 5081 c-24 -45 -3 -111 35 -111 32 0 58 93 33 118 -18 18 -56
14 -68 -7z"/>
<path d="M3536 5044 c-10 -25 1 -29 14 -5 6 12 7 21 1 21 -5 0 -12 -7 -15 -16z"/>
<path d="M3618 4973 c7 -3 16 -2 19 1 4 3 -2 6 -13 5 -11 0 -14 -3 -6 -6z"/>
<path d="M5763 4973 c-15 -5 -17 -23 -4 -23 5 0 11 7 15 15 3 8 4 15 3 14 -1
0 -8 -3 -14 -6z"/>
<path d="M5720 4931 c0 -5 9 -7 20 -4 11 3 20 7 20 9 0 2 -9 4 -20 4 -11 0
-20 -4 -20 -9z"/>
<path d="M5918 4913 c7 -3 16 -2 19 1 4 3 -2 6 -13 5 -11 0 -14 -3 -6 -6z"/>
<path d="M3555 4900 c-3 -5 -1 -10 4 -10 6 0 11 5 11 10 0 6 -2 10 -4 10 -3 0
-8 -4 -11 -10z"/>
<path d="M3620 4879 c0 -5 5 -7 10 -4 6 3 10 8 10 11 0 2 -4 4 -10 4 -5 0 -10
-5 -10 -11z"/>
<path d="M4678 4868 c-16 -5 -28 -13 -28 -18 0 -12 37 0 51 16 13 16 13 16
-23 2z"/>
<path d="M6064 4872 c4 -7 3 -19 -4 -27 -6 -8 -7 -16 -2 -19 14 -8 23 37 10
49 -8 7 -9 6 -4 -3z"/>
<path d="M6645 4871 c-3 -5 -1 -12 5 -16 5 -3 10 1 10 9 0 18 -6 21 -15 7z"/>
<path d="M4820 4860 c-8 -5 -12 -11 -10 -14 3 -2 14 2 24 10 22 15 10 19 -14
4z"/>
<path d="M3640 4850 c-12 -7 -10 -9 7 -7 12 0 19 5 17 9 -6 10 -6 10 -24 -2z"/>
<path d="M4695 4830 c-3 -5 -1 -10 4 -10 6 0 11 5 11 10 0 6 -2 10 -4 10 -3 0
-8 -4 -11 -10z"/>
<path d="M6085 4830 c3 -5 8 -10 11 -10 2 0 4 5 4 10 0 6 -5 10 -11 10 -5 0
-7 -4 -4 -10z"/>
<path d="M4491 4794 c-6 -15 -9 -29 -7 -32 3 -2 10 8 16 23 14 36 7 43 -9 9z"/>
<path d="M6474 4763 c15 -14 25 -31 23 -37 -3 -10 16 -36 27 -36 2 0 4 12 3
28 -1 15 -8 27 -15 27 -6 0 -19 10 -27 23 -9 12 -21 22 -27 22 -6 0 1 -12 16
-27z"/>
<path d="M6680 4727 c-8 -7 -14 -23 -12 -37 3 -20 1 -23 -9 -12 -16 15 -39 16
-39 1 0 -6 7 -9 15 -5 10 3 15 -1 15 -12 0 -10 6 -27 14 -37 13 -18 14 -18 20
1 3 10 4 36 1 57 -3 24 -1 36 5 32 5 -3 10 1 10 9 0 19 -1 19 -20 3z"/>
<path d="M6455 4719 c-4 -6 -5 -12 -2 -15 2 -3 7 2 10 11 7 17 1 20 -8 4z"/>
<path d="M6275 4700 c10 -11 20 -20 23 -20 3 0 -3 9 -13 20 -10 11 -20 20 -23
20 -3 0 3 -9 13 -20z"/>
<path d="M4261 4692 c-17 -31 -13 -40 5 -14 9 13 14 26 11 29 -3 2 -10 -4 -16
-15z"/>
<path d="M6424 4696 c5 -14 2 -17 -11 -12 -16 6 -16 6 0 -12 9 -10 17 -31 17
-46 0 -16 4 -25 10 -21 6 3 10 -1 10 -9 0 -8 3 -17 8 -19 4 -3 7 19 8 49 0 30
-3 54 -8 54 -4 0 -8 -7 -8 -16 0 -8 -5 -12 -11 -9 -6 4 -8 13 -6 19 3 7 1 19
-5 27 -8 11 -9 10 -4 -5z"/>
<path d="M6480 4675 c-7 -66 12 -127 32 -107 8 8 6 18 -5 35 -9 13 -17 42 -20
63 -3 35 -4 36 -7 9z"/>
<path d="M3899 4673 c-13 -16 -12 -17 4 -4 16 13 21 21 13 21 -2 0 -10 -8 -17
-17z"/>
<path d="M3716 4624 c-5 -14 -4 -15 9 -4 17 14 19 20 6 20 -5 0 -12 -7 -15
-16z"/>
<path d="M3877 4633 c-4 -3 -7 -11 -7 -17 0 -6 5 -5 12 2 6 6 9 14 7 17 -3 3
-9 2 -12 -2z"/>
<path d="M4202 4619 c-8 -12 -9 -18 -3 -14 6 3 11 1 11 -6 0 -7 11 -2 25 11
14 13 22 26 19 29 -3 3 -10 -2 -15 -12 -12 -21 -31 -23 -23 -2 9 22 1 18 -14
-6z"/>
<path d="M3895 4600 c-3 -5 -2 -10 4 -10 5 0 13 5 16 10 3 6 2 10 -4 10 -5 0
-13 -4 -16 -10z"/>
<path d="M3700 4590 c0 -5 5 -10 10 -10 6 0 10 5 10 10 0 6 -4 10 -10 10 -5 0
-10 -4 -10 -10z"/>
<path d="M6651 4538 c-1 -16 4 -28 9 -28 12 0 12 8 0 35 -8 18 -9 17 -9 -7z"/>
<path d="M4046 4526 c-23 -36 -20 -44 5 -12 12 15 19 29 16 32 -2 2 -12 -7
-21 -20z"/>
<path d="M3852 4529 c-13 -5 -21 -13 -17 -18 7 -13 32 -3 39 15 3 8 4 14 3 13
-1 0 -12 -4 -25 -10z"/>
<path d="M4006 4503 c-6 -14 -5 -15 5 -6 7 7 10 15 7 18 -3 3 -9 -2 -12 -12z"/>
<path d="M4050 4469 c0 -5 5 -7 10 -4 6 3 10 8 10 11 0 2 -4 4 -10 4 -5 0 -10
-5 -10 -11z"/>
<path d="M6252 4435 c0 -16 2 -22 5 -12 2 9 2 23 0 30 -3 6 -5 -1 -5 -18z"/>
<path d="M4000 4435 c-7 -9 -10 -18 -7 -21 3 -3 10 4 17 15 13 25 8 27 -10 6z"/>
<path d="M6226 4433 c-2 -10 -1 -36 4 -58 8 -39 8 -39 9 18 1 57 -3 72 -13 40z"/>
<path d="M3963 4428 c-23 -30 -24 -41 -2 -21 12 12 20 25 17 28 -3 3 -10 0
-15 -7z"/>
<path d="M4211 4404 c-6 -15 -9 -29 -7 -32 3 -2 10 8 16 23 14 36 7 43 -9 9z"/>
<path d="M4049 4398 c-1 -7 -1 -17 0 -21 1 -4 -4 -17 -10 -29 -8 -15 -8 -18 0
-14 6 4 11 2 11 -4 0 -7 5 -6 14 2 8 7 12 15 10 17 -2 2 3 13 13 23 18 20 5
25 -16 6 -11 -11 -13 -9 -8 10 3 12 1 22 -4 22 -5 0 -10 -6 -10 -12z"/>
<path d="M5560 4319 c0 -5 5 -7 10 -4 6 3 10 8 10 11 0 2 -4 4 -10 4 -5 0 -10
-5 -10 -11z"/>
<path d="M4012 4280 c-7 -11 -8 -20 -2 -20 5 0 14 9 20 20 6 11 7 20 3 20 -5
0 -14 -9 -21 -20z"/>
<path d="M4272 4280 c0 -14 2 -19 5 -12 2 6 2 18 0 25 -3 6 -5 1 -5 -13z"/>
<path d="M5850 4285 c-7 -8 -8 -15 -2 -15 5 0 15 7 22 15 7 8 8 15 2 15 -5 0
-15 -7 -22 -15z"/>
<path d="M4196 4215 c-9 -26 -7 -32 5 -12 6 10 9 21 6 23 -2 3 -7 -2 -11 -11z"/>
<path d="M5345 4181 c-8 -13 17 -101 27 -95 4 3 3 14 -2 25 -6 11 -8 24 -5 29
3 5 0 12 -6 15 -5 4 -8 13 -5 21 6 16 0 19 -9 5z"/>
<path d="M5450 4158 c0 -9 5 -20 10 -23 13 -8 13 5 0 25 -8 13 -10 13 -10 -2z"/>
<path d="M5253 4149 c21 -12 22 -29 2 -29 -8 0 -15 -4 -15 -10 0 -14 23 -13
38 2 9 9 12 9 12 -1 0 -7 5 -9 12 -5 8 5 9 2 5 -10 -4 -9 -3 -15 2 -11 6 3 15
-3 21 -12 9 -15 10 -12 6 16 -3 18 -6 37 -6 42 0 5 -11 9 -24 9 -14 0 -28 5
-31 10 -3 6 -14 10 -23 10 -16 -1 -16 -1 1 -11z"/>
<path d="M5374 4139 c-3 -6 -1 -16 5 -22 8 -8 11 -5 11 11 0 24 -5 28 -16 11z"/>
<path d="M5203 4124 c-15 -15 -17 -31 -5 -38 11 -7 32 29 24 41 -5 7 -11 6
-19 -3z"/>
<path d="M5230 4075 c0 -8 5 -15 10 -15 6 0 10 7 10 15 0 8 -4 15 -10 15 -5 0
-10 -7 -10 -15z"/>
<path d="M5260 4069 c0 -5 5 -7 10 -4 6 3 10 8 10 11 0 2 -4 4 -10 4 -5 0 -10
-5 -10 -11z"/>
<path d="M5381 4014 c0 -11 3 -14 6 -6 3 7 2 16 -1 19 -3 4 -6 -2 -5 -13z"/>
<path d="M4775 3984 c-9 -15 -12 -23 -6 -20 11 7 35 46 28 46 -3 0 -12 -12
-22 -26z"/>
<path d="M5270 4000 c0 -5 5 -10 11 -10 5 0 7 5 4 10 -3 6 -8 10 -11 10 -2 0
-4 -4 -4 -10z"/>
<path d="M5126 3953 c-6 -14 -5 -15 5 -6 7 7 10 15 7 18 -3 3 -9 -2 -12 -12z"/>
<path d="M5618 3963 c7 -3 16 -2 19 1 4 3 -2 6 -13 5 -11 0 -14 -3 -6 -6z"/>
<path d="M4960 3940 c-9 -6 -10 -10 -3 -10 6 0 15 5 18 10 8 12 4 12 -15 0z"/>
<path d="M5568 3923 c7 -3 16 -2 19 1 4 3 -2 6 -13 5 -11 0 -14 -3 -6 -6z"/>
<path d="M5600 3910 c-8 -5 -10 -10 -5 -10 6 0 17 5 25 10 8 5 11 10 5 10 -5
0 -17 -5 -25 -10z"/>
<path d="M4967 3859 c7 -7 15 -10 18 -7 3 3 -2 9 -12 12 -14 6 -15 5 -6 -5z"/>
<path d="M5610 3825 c-7 -8 -8 -15 -2 -15 5 0 15 7 22 15 7 8 8 15 2 15 -5 0
-15 -7 -22 -15z"/>
<path d="M4955 3749 c-11 -17 1 -21 15 -4 8 9 8 15 2 15 -6 0 -14 -5 -17 -11z"/>
<path d="M5570 3730 c0 -5 5 -10 11 -10 5 0 7 5 4 10 -3 6 -8 10 -11 10 -2 0
-4 -4 -4 -10z"/>
<path d="M5406 3703 c4 -15 15 -39 26 -52 10 -13 18 -31 19 -40 0 -10 2 -11 6
-4 2 7 -5 29 -17 48 -12 19 -19 38 -17 42 3 5 -2 14 -9 21 -13 12 -14 9 -8
-15z"/>
<path d="M5560 3701 c0 -5 5 -13 10 -16 6 -3 10 -2 10 4 0 5 -4 13 -10 16 -5
3 -10 2 -10 -4z"/>
<path d="M3710 3662 c0 -12 19 -26 26 -19 2 2 -2 10 -11 17 -9 8 -15 8 -15 2z"/>
<path d="M5481 3623 c7 -12 15 -20 18 -17 3 2 -3 12 -13 22 -17 16 -18 16 -5
-5z"/>
<path d="M3720 3626 c0 -4 7 -18 16 -31 19 -29 40 -34 24 -6 -7 14 -6 21 2 23
9 3 9 6 0 12 -7 4 -12 2 -12 -5 0 -8 -4 -8 -15 1 -8 7 -15 9 -15 6z"/>
<path d="M5347 3613 c-2 -5 -1 -19 4 -33 7 -23 7 -23 8 8 1 31 -3 40 -12 25z"/>
<path d="M3840 3460 c14 -10 27 -17 29 -14 7 7 -17 28 -36 30 -14 2 -12 -2 7
-16z"/>
<path d="M3880 3470 c0 -5 5 -10 11 -10 5 0 7 5 4 10 -3 6 -8 10 -11 10 -2 0
-4 -4 -4 -10z"/>
<path d="M3878 3426 c-10 -7 -15 -16 -12 -19 4 -3 13 1 21 9 14 13 17 13 29
-3 12 -17 13 -16 7 5 -6 25 -20 28 -45 8z"/>
<path d="M3830 3355 c0 -5 5 -17 10 -25 5 -8 10 -10 10 -5 0 6 -5 17 -10 25
-5 8 -10 11 -10 5z"/>
<path d="M3915 3319 c35 -43 82 -51 56 -10 -5 7 -14 10 -21 6 -6 -4 -23 3 -38
16 -24 22 -24 21 3 -12z"/>
<path d="M3900 3305 c0 -5 10 -21 21 -35 13 -17 17 -18 10 -5 -17 33 -31 51
-31 40z"/>
<path d="M3950 3244 c0 -13 18 -39 24 -34 2 3 -2 14 -10 24 -8 11 -14 16 -14
10z"/>
<path d="M4078 3173 c7 -3 16 -2 19 1 4 3 -2 6 -13 5 -11 0 -14 -3 -6 -6z"/>
<path d="M4130 3170 c-13 -9 -12 -12 4 -25 27 -20 33 -19 32 7 -1 25 -15 32
-36 18z m25 -10 c3 -5 1 -10 -4 -10 -6 0 -11 5 -11 10 0 6 2 10 4 10 3 0 8 -4
11 -10z"/>
<path d="M4085 3120 c3 -5 8 -10 11 -10 2 0 4 5 4 10 0 6 -5 10 -11 10 -5 0
-7 -4 -4 -10z"/>
<path d="M4120 3122 c0 -4 10 -13 23 -21 22 -14 22 -14 3 8 -20 22 -26 25 -26
13z"/>
<path d="M4216 3027 c6 -16 64 -49 64 -37 0 5 -9 14 -20 20 -11 6 -18 14 -16
18 3 5 -4 8 -14 9 -11 1 -17 -3 -14 -10z"/>
<path d="M4290 2991 c0 -5 5 -13 10 -16 6 -3 10 -2 10 4 0 5 -4 13 -10 16 -5
3 -10 2 -10 -4z"/>
<path d="M4353 2993 c-24 -9 -13 -24 15 -21 21 2 26 -1 24 -14 -1 -9 7 -22 20
-29 23 -12 23 -12 5 9 -14 15 -15 21 -5 25 24 11 -33 39 -59 30z"/>
<path d="M4280 2961 c0 -4 7 -16 16 -27 13 -15 15 -16 10 -2 -4 12 -1 15 11
11 10 -4 14 -2 10 4 -8 13 -47 24 -47 14z"/>
<path d="M4346 2941 c9 -9 34 -9 34 -1 0 5 -9 8 -20 7 -10 -1 -17 -3 -14 -6z"/>
<path d="M5930 2942 c0 -4 9 -15 20 -25 12 -10 18 -22 15 -27 -9 -14 9 -12 23
2 13 13 16 29 5 27 -23 -4 -35 3 -29 16 4 10 -1 15 -14 15 -11 0 -20 -3 -20
-8z"/>
<path d="M4390 2912 c0 -4 10 -18 21 -32 15 -18 19 -20 15 -7 -3 10 -6 22 -6
27 0 4 -7 10 -15 14 -8 3 -15 2 -15 -2z"/>
<path d="M5925 2900 c-3 -5 -1 -10 4 -10 6 0 11 5 11 10 0 6 -2 10 -4 10 -3 0
-8 -4 -11 -10z"/>
<path d="M4465 2890 c3 -5 8 -10 11 -10 2 0 4 5 4 10 0 6 -5 10 -11 10 -5 0
-7 -4 -4 -10z"/>
<path d="M4540 2880 c0 -5 5 -10 11 -10 5 0 7 5 4 10 -3 6 -8 10 -11 10 -2 0
-4 -4 -4 -10z"/>
<path d="M4445 2870 c3 -5 8 -10 11 -10 2 0 4 5 4 10 0 6 -5 10 -11 10 -5 0
-7 -4 -4 -10z"/>
<path d="M4500 2850 c0 -5 5 -10 11 -10 5 0 7 5 4 10 -3 6 -8 10 -11 10 -2 0
-4 -4 -4 -10z"/>
<path d="M4530 2850 c0 -5 5 -10 11 -10 5 0 7 5 4 10 -3 6 -8 10 -11 10 -2 0
-4 -4 -4 -10z"/>
<path d="M4567 2843 c-10 -9 -9 -23 1 -23 5 0 9 7 9 15 0 17 -1 18 -10 8z"/>
<path d="M4605 2800 c3 -5 8 -10 11 -10 2 0 4 5 4 10 0 6 -5 10 -11 10 -5 0
-7 -4 -4 -10z"/>
<path d="M4690 2800 c0 -5 5 -10 11 -10 5 0 7 5 4 10 -3 6 -8 10 -11 10 -2 0
-4 -4 -4 -10z"/>
<path d="M4600 2770 c0 -5 4 -10 9 -10 5 0 18 -3 28 -6 16 -6 16 -5 -2 9 -23
19 -35 21 -35 7z"/>
<path d="M4770 2770 c8 -5 22 -10 30 -10 13 0 13 1 0 10 -8 5 -22 10 -30 10
-13 0 -13 -1 0 -10z"/>
<path d="M5028 2773 c7 -3 16 -2 19 1 4 3 -2 6 -13 5 -11 0 -14 -3 -6 -6z"/>
<path d="M5354 2765 c-15 -11 -16 -14 -4 -15 21 0 44 16 33 23 -6 4 -19 0 -29
-8z"/>
<path d="M4827 2756 c-4 -10 -1 -13 9 -9 15 6 19 23 5 23 -5 0 -11 -7 -14 -14z"/>
<path d="M4850 2743 c-13 -15 -12 -16 4 -10 10 4 20 7 22 7 2 0 4 5 4 10 0 15
-13 12 -30 -7z"/>
<path d="M5033 2753 c-16 -6 -17 -43 -2 -43 5 0 7 5 3 11 -3 6 0 15 7 20 16 9
10 18 -8 12z"/>
<path d="M5395 2751 c-3 -6 3 -9 14 -8 11 0 17 5 15 9 -7 11 -22 10 -29 -1z"/>
<path d="M4660 2740 c0 -5 5 -10 11 -10 5 0 7 5 4 10 -3 6 -8 10 -11 10 -2 0
-4 -4 -4 -10z"/>
<path d="M4770 2740 c0 -5 5 -10 11 -10 5 0 7 5 4 10 -3 6 -8 10 -11 10 -2 0
-4 -4 -4 -10z"/>
<path d="M4725 2730 c-3 -5 1 -10 10 -10 9 0 13 5 10 10 -3 6 -8 10 -10 10 -2
0 -7 -4 -10 -10z"/>
<path d="M5170 2720 c0 -5 5 -10 11 -10 5 0 7 5 4 10 -3 6 -8 10 -11 10 -2 0
-4 -4 -4 -10z"/>
<path d="M5374 2714 c3 -9 6 -18 6 -20 0 -2 5 -4 10 -4 6 0 10 9 10 20 0 12
-7 20 -16 20 -11 0 -14 -5 -10 -16z"/>
<path d="M4760 2712 c0 -5 11 -14 25 -20 29 -14 34 2 6 18 -24 12 -31 13 -31
2z"/>
<path d="M5110 2690 c0 -5 5 -10 11 -10 5 0 7 5 4 10 -3 6 -8 10 -11 10 -2 0
-4 -4 -4 -10z"/>
<path d="M4990 2680 c0 -5 5 -10 10 -10 6 0 10 5 10 10 0 6 -4 10 -10 10 -5 0
-10 -4 -10 -10z"/>
<path d="M4900 2649 c0 -5 5 -7 10 -4 6 3 10 8 10 11 0 2 -4 4 -10 4 -5 0 -10
-5 -10 -11z"/>
<path d="M5060 2650 c0 -5 5 -10 10 -10 6 0 10 5 10 10 0 6 -4 10 -10 10 -5 0
-10 -4 -10 -10z"/>
<path d="M4945 2640 c-17 -7 -14 -9 13 -9 20 -1 31 3 27 9 -7 12 -13 12 -40 0z"/>
<path d="M5006 2643 c-3 -4 -6 -10 -6 -14 0 -10 67 -24 94 -20 11 2 16 -2 12
-8 -5 -7 7 -11 35 -11 39 0 41 1 24 14 -10 7 -27 11 -37 8 -10 -2 -18 0 -18 5
0 5 -16 8 -35 7 -20 -2 -40 3 -49 11 -7 8 -16 11 -20 8z"/>
<path d="M5200 2599 c0 -5 5 -7 10 -4 6 3 10 8 10 11 0 2 -4 4 -10 4 -5 0 -10
-5 -10 -11z"/>
<path d="M5350 1940 c0 -5 5 -10 10 -10 6 0 10 5 10 10 0 6 -4 10 -10 10 -5 0
-10 -4 -10 -10z"/>
<path d="M5176 1853 c-6 -14 -5 -15 5 -6 7 7 10 15 7 18 -3 3 -9 -2 -12 -12z"/>
<path d="M5260 1861 c0 -6 4 -13 10 -16 6 -3 7 1 4 9 -7 18 -14 21 -14 7z"/>
<path d="M4910 1840 c0 -5 5 -10 11 -10 5 0 7 5 4 10 -3 6 -8 10 -11 10 -2 0
-4 -4 -4 -10z"/>
<path d="M5157 1811 c-3 -14 -1 -18 9 -14 16 6 18 19 5 27 -5 3 -11 -3 -14
-13z"/>
<path d="M5262 1765 c6 -14 13 -24 14 -22 6 6 -9 47 -17 47 -5 0 -3 -11 3 -25z"/>
</g>
</svg>
